<?xml version="1.0" encoding="utf-8"?>
<!-- Generator: Adobe Illustrator 17.1.0, SVG Export Plug-In . SVG Version: 6.00 Build 0)  -->
<!DOCTYPE svg PUBLIC "-//W3C//DTD SVG 1.1//EN" "http://www.w3.org/Graphics/SVG/1.1/DTD/svg11.dtd">
<svg version="1.1"
	 id="svg2" xmlns:rdf="http://www.w3.org/1999/02/22-rdf-syntax-ns#" xmlns:dc="http://purl.org/dc/elements/1.1/" xmlns:inkscape="http://www.inkscape.org/namespaces/inkscape" xmlns:cc="http://creativecommons.org/ns#" xmlns:svg="http://www.w3.org/2000/svg" xmlns:sodipodi="http://sodipodi.sourceforge.net/DTD/sodipodi-0.dtd" sodipodi:docname="pfd_hsi_face.svg" inkscape:version="0.48.4 r9939"
	 xmlns="http://www.w3.org/2000/svg" xmlns:xlink="http://www.w3.org/1999/xlink" x="0px" y="0px" viewBox="0 0 210 210"
	 enable-background="new 0 0 210 210" xml:space="preserve">
<sodipodi:namedview  inkscape:cy="220.25221" pagecolor="#ffffff" showgrid="false" showguides="true" inkscape:cx="-231.09168" bordercolor="#666666" inkscape:zoom="0.49999998" borderopacity="1.0" id="base" inkscape:snap-intersection-paths="true" inkscape:guide-bbox="true" inkscape:snap-nodes="true" inkscape:snap-center="true" inkscape:object-nodes="true" inkscape:snap-midpoints="true" inkscape:object-paths="false" inkscape:snap-smooth-nodes="false" inkscape:snap-object-midpoints="true" inkscape:window-maximized="1" inkscape:window-y="-6" inkscape:window-x="-4" inkscape:current-layer="layer1" inkscape:pageshadow="2" inkscape:pageopacity="0.0" inkscape:document-units="px" inkscape:window-height="1011" inkscape:window-width="1920">
	</sodipodi:namedview>
<g id="layer1" transform="translate(0,-842.36218)" inkscape:label="Layer 1" inkscape:groupmode="layer">
	<g id="g6248" transform="translate(-48.861706,-367.93756)">
		<g id="g5686">
			<g id="g5610">
				<rect id="rect4330" x="153.4" y="1210.3" inkscape:transform-center-y="-102.00006" width="1" height="6">
				</rect>
				
					<rect id="rect4330-8" x="135.6" y="1211.8" inkscape:transform-center-x="17.712116" inkscape:transform-center-y="-100.45042" transform="matrix(-0.9848 0.1736 -0.1736 -0.9848 481.1872 2387.6001)" width="1" height="6">
				</rect>
				
					<rect id="rect4330-8-3" x="118.5" y="1216.5" inkscape:transform-center-x="34.886067" inkscape:transform-center-y="-95.848706" transform="matrix(-0.9397 0.342 -0.342 -0.9397 647.8531 2324.668)" width="1" height="6">
				</rect>
				
					<rect id="rect4330-8-3-2" x="102.4" y="1224" inkscape:transform-center-x="51.000007" inkscape:transform-center-y="-88.334626" transform="matrix(-0.866 0.5 -0.5 -0.866 805.4252 2238.1172)" width="1" height="6">
				</rect>
				
					<rect id="rect4330-8-3-2-6" x="87.8" y="1234.2" inkscape:transform-center-x="65.564378" inkscape:transform-center-y="-78.136551" transform="matrix(-0.766 0.6428 -0.6428 -0.766 951.1702 2128.1287)" width="1" height="6">
				</rect>
				
					<rect id="rect4330-8-3-2-6-9" x="75.2" y="1246.7" inkscape:transform-center-x="78.136545" inkscape:transform-center-y="-65.564344" transform="matrix(-0.6428 0.766 -0.766 -0.6428 1081.7532 1995.0409)" width="1" height="6">
				</rect>
				
					<rect id="rect4330-8-3-2-6-9-4" x="65" y="1261.3" inkscape:transform-center-x="88.334604" inkscape:transform-center-y="-51.000058" transform="matrix(-0.5 0.866 -0.866 -0.5 1193.2062 1839.7014)" width="1" height="6">
				</rect>
				
					<rect id="rect4330-8-3-2-6-9-4-7" x="57.5" y="1277.4" inkscape:transform-center-x="95.848674" inkscape:transform-center-y="-34.886095" transform="matrix(-0.342 0.9397 -0.9397 -0.342 1281.0499 1663.8264)" width="1" height="6">
				</rect>
				
					<rect id="rect4330-8-3-2-6-9-4-7-6" x="52.9" y="1294.6" inkscape:transform-center-x="100.45045" inkscape:transform-center-y="-17.712088" transform="matrix(-0.1736 0.9848 -0.9848 -0.1736 1340.5604 1470.3116)" width="1" height="6">
				</rect>
				
					<rect id="rect4330-8-3-2-6-9-4-7-6-3" x="48.9" y="1314.8" inkscape:transform-center-x="102.00006" inkscape:transform-center-y="7.2991178e-05" width="6" height="1">
				</rect>
				
					<rect id="rect4330-8-3-2-6-9-4-7-6-3-9" x="52.9" y="1330" inkscape:transform-center-x="100.45042" inkscape:transform-center-y="17.712222" transform="matrix(0.1736 0.9848 -0.9848 0.1736 1356.897 1048.937)" width="1" height="6">
				</rect>
				
					<rect id="rect4330-8-3-2-6-9-4-7-6-3-9-4" x="57.5" y="1347.2" inkscape:transform-center-x="95.848664" inkscape:transform-center-y="34.886138" transform="matrix(0.342 0.9397 -0.9397 0.342 1306.9312 833.8807)" width="1" height="6">
				</rect>
				
					<rect id="rect4330-8-3-2-6-9-4-7-6-3-9-4-5" x="65" y="1363.3" inkscape:transform-center-x="88.334578" inkscape:transform-center-y="51.000108" transform="matrix(0.5 0.866 -0.866 0.5 1216.0139 626.4018)" width="1" height="6">
				</rect>
				
					<rect id="rect4330-8-3-2-6-9-4-7-6-3-9-4-5-0" x="75.2" y="1377.9" inkscape:transform-center-x="78.136531" inkscape:transform-center-y="65.564458" transform="matrix(0.6428 0.766 -0.766 0.6428 1084.8533 435.253)" width="1" height="6">
				</rect>
				
					<rect id="rect4330-8-3-2-6-9-4-7-6-3-9-4-5-0-1" x="87.8" y="1390.4" inkscape:transform-center-x="65.564242" inkscape:transform-center-y="78.13661" transform="matrix(0.766 0.6428 -0.6428 0.766 916.3412 269.2457)" width="1" height="6">
				</rect>
				
					<rect id="rect4330-8-3-2-6-9-4-7-6-3-9-4-5-0-1-8" x="102.4" y="1400.6" inkscape:transform-center-x="50.999895" inkscape:transform-center-y="88.3346" transform="matrix(0.866 0.5 -0.5 0.866 715.598 136.6205)" width="1" height="6">
				</rect>
				
					<rect id="rect4330-8-3-2-6-9-4-7-6-3-9-4-5-0-1-8-1" x="118.5" y="1408.1" inkscape:transform-center-x="34.885955" inkscape:transform-center-y="95.848653" transform="matrix(0.9397 0.342 -0.342 0.9397 489.8163 44.4106)" width="1" height="6">
				</rect>
				
					<rect id="rect4330-8-3-2-6-9-4-7-6-3-9-4-5-0-1-8-1-8" x="135.6" y="1412.8" inkscape:transform-center-x="17.712044" inkscape:transform-center-y="100.45044" transform="matrix(0.9848 0.1736 -0.1736 0.9848 247.9108 -2.1337)" width="1" height="6">
				</rect>
				
					<rect id="rect4330-6" x="144.3" y="1210.7" inkscape:transform-center-x="9.020631" inkscape:transform-center-y="-103.10624" transform="matrix(-0.9962 8.715564e-002 -8.715564e-002 -0.9962 394.7805 2407.1506)" width="1" height="3">
				</rect>
				
					<rect id="rect4330-6-3" x="126.6" y="1213.8" inkscape:transform-center-x="26.787806" inkscape:transform-center-y="-99.973442" transform="matrix(-0.9659 0.2588 -0.2588 -0.9659 564.3676 2356.3521)" width="1" height="3">
				</rect>
				
					<rect id="rect4330-6-3-6" x="109.6" y="1220" inkscape:transform-center-x="43.741039" inkscape:transform-center-y="-93.802932" transform="matrix(-0.9063 0.4226 -0.4226 -0.9063 726.1508 2282.0098)" width="1" height="3">
				</rect>
				
					<rect id="rect4330-6-3-6-2" x="94" y="1229" inkscape:transform-center-x="59.365239" inkscape:transform-center-y="-84.782365" transform="matrix(-0.8192 0.5736 -0.5736 -0.8192 877.6993 2184.2974)" width="1" height="3">
				</rect>
				
					<rect id="rect4330-6-3-6-2-8" x="80.2" y="1240.6" inkscape:transform-center-x="73.185626" inkscape:transform-center-y="-73.185657" transform="matrix(-0.7071 0.7071 -0.7071 -0.7071 1016.03 2063.3748)" width="1" height="3">
				</rect>
				
					<rect id="rect4330-6-3-6-2-8-7" x="68.6" y="1254.4" inkscape:transform-center-x="84.782335" inkscape:transform-center-y="-59.365229" transform="matrix(-0.5736 0.8192 -0.8192 -0.5736 1137.5029 1919.7225)" width="1" height="3">
				</rect>
				
					<rect id="rect4330-6-3-6-2-8-7-8" x="59.6" y="1270.1" inkscape:transform-center-x="93.802981" inkscape:transform-center-y="-43.741044" transform="matrix(-0.4226 0.9063 -0.9063 -0.4226 1237.8641 1754.511)" width="1" height="3">
				</rect>
				
					<rect id="rect4330-6-3-6-2-8-7-8-4" x="53.4" y="1287" inkscape:transform-center-x="99.973462" inkscape:transform-center-y="-26.78778" transform="matrix(-0.2588 0.9659 -0.9659 -0.2588 1312.4425 1569.9514)" width="1" height="3">
				</rect>
				
					<rect id="rect4330-6-3-6-2-8-7-8-4-8" x="50.3" y="1304.8" inkscape:transform-center-x="103.10629" inkscape:transform-center-y="-9.0205504" transform="matrix(-8.715577e-002 0.9962 -0.9962 -8.715577e-002 1356.4874 1369.5668)" width="1" height="3">
				</rect>
				
					<rect id="rect4330-6-3-6-2-8-7-8-4-8-0" x="50.3" y="1322.8" inkscape:transform-center-x="103.10628" inkscape:transform-center-y="9.0206725" transform="matrix(8.715568e-002 0.9962 -0.9962 8.715568e-002 1365.6128 1158.3361)" width="1" height="3">
				</rect>
				
					<rect id="rect4330-6-3-6-2-8-7-8-4-8-0-2" x="53.4" y="1340.6" inkscape:transform-center-x="99.973462" inkscape:transform-center-y="26.787809" transform="matrix(0.2588 0.9659 -0.9659 0.2588 1336.298 942.6776)" width="1" height="3">
				</rect>
				
					<rect id="rect4330-6-3-6-2-8-7-8-4-8-0-2-1" x="59.6" y="1357.5" inkscape:transform-center-x="93.802981" inkscape:transform-center-y="43.741078" transform="matrix(0.4226 0.9063 -0.9063 0.4226 1266.3861 730.2537)" width="1" height="3">
				</rect>
				
					<rect id="rect4330-6-3-6-2-8-7-8-4-8-0-2-1-0" x="68.6" y="1373.2" inkscape:transform-center-x="84.78235" inkscape:transform-center-y="59.365204" transform="matrix(0.5736 0.8192 -0.8192 0.5736 1155.5166 529.603)" width="1" height="3">
				</rect>
				
					<rect id="rect4330-6-3-6-2-8-7-8-4-8-0-2-1-0-3" x="80.2" y="1387" inkscape:transform-center-x="73.185631" inkscape:transform-center-y="73.185622" transform="matrix(0.7071 0.7071 -0.7071 0.7071 1005.4369 349.6313)" width="1" height="3">
				</rect>
				
					<rect id="rect4330-6-3-6-2-8-7-8-4-8-0-2-1-0-3-7" x="94" y="1398.6" inkscape:transform-center-x="59.365199" inkscape:transform-center-y="84.782291" transform="matrix(0.8192 0.5736 -0.5736 0.8192 820.1436 199.001)" width="1" height="3">
				</rect>
				
					<rect id="rect4330-6-3-6-2-8-7-8-4-8-0-2-1-0-3-7-2" x="109.6" y="1407.6" inkscape:transform-center-x="43.74101" inkscape:transform-center-y="93.802856" transform="matrix(0.9063 0.4226 -0.4226 0.9063 605.83 85.4829)" width="1" height="3">
				</rect>
				
					<rect id="rect4330-6-3-6-2-8-7-8-4-8-0-2-1-0-3-7-2-1" x="126.6" y="1413.8" inkscape:transform-center-x="26.787799" inkscape:transform-center-y="99.973348" transform="matrix(0.9659 0.2588 -0.2588 0.9659 370.6296 15.3351)" width="1" height="3">
				</rect>
				
					<rect id="rect4330-6-3-6-2-8-7-8-4-8-0-2-1-0-3-7-2-1-4" x="144.3" y="1416.9" inkscape:transform-center-x="9.0206425" inkscape:transform-center-y="103.10623" transform="matrix(0.9962 8.715575e-002 -8.715575e-002 0.9962 124.1734 -7.2263)" width="1" height="3">
				</rect>
			</g>
			<g id="g5648">
				
					<rect id="rect4330-8-3-2-6-9-4-7-6-3-9-4-5-0-1-8-1-8-8" x="153.4" y="1414.3" inkscape:transform-center-x="-7.4733151e-05" inkscape:transform-center-y="102.00008" width="1" height="6">
				</rect>
				
					<rect id="rect4330-8-3-2-6-9-4-7-6-3-9-4-5-0-1-8-1-8-8-5" x="171.1" y="1412.8" inkscape:transform-center-x="-17.712208" inkscape:transform-center-y="100.45048" transform="matrix(0.9848 -0.1736 0.1736 0.9848 -243.2359 51.3019)" width="1" height="6">
				</rect>
				
					<rect id="rect4330-8-3-2-6-9-4-7-6-3-9-4-5-0-1-8-1-8-8-5-2" x="188.2" y="1408.1" inkscape:transform-center-x="-34.886156" inkscape:transform-center-y="95.848691" transform="matrix(0.9397 -0.342 0.342 0.9397 -471.2583 149.6582)" width="1" height="6">
				</rect>
				
					<rect id="rect4330-8-3-2-6-9-4-7-6-3-9-4-5-0-1-8-1-8-8-5-2-8" x="204.4" y="1400.6" inkscape:transform-center-x="-51.000123" inkscape:transform-center-y="88.33464" transform="matrix(0.866 -0.5 0.5 0.866 -674.3709 290.4822)" width="1" height="6">
				</rect>
				
					<rect id="rect4330-8-3-2-6-9-4-7-6-3-9-4-5-0-1-8-1-8-8-5-2-8-5" x="218.9" y="1390.4" inkscape:transform-center-x="-65.564483" inkscape:transform-center-y="78.136539" transform="matrix(0.766 -0.6428 0.6428 0.766 -844.3477 467.0466)" width="1" height="6">
				</rect>
				
					<rect id="rect4330-8-3-2-6-9-4-7-6-3-9-4-5-0-1-8-1-8-8-5-2-8-5-6" x="231.5" y="1377.9" inkscape:transform-center-x="-78.13671" inkscape:transform-center-y="65.564321" transform="matrix(0.6428 -0.766 0.766 0.6428 -974.9305 670.9828)" width="1" height="6">
				</rect>
				
					<rect id="rect4330-8-3-2-6-9-4-7-6-3-9-4-5-0-1-8-1-8-8-5-2-8-5-6-9" x="241.7" y="1363.3" inkscape:transform-center-x="-88.334762" inkscape:transform-center-y="50.999905" transform="matrix(0.5 -0.866 0.866 0.5 -1062.152 892.8981)" width="1" height="6">
				</rect>
				
					<rect id="rect4330-8-3-2-6-9-4-7-6-3-9-4-5-0-1-8-1-8-8-5-2-8-5-6-9-0" x="249.2" y="1347.2" inkscape:transform-center-x="-95.848793" inkscape:transform-center-y="34.885948" transform="matrix(0.342 -0.9397 0.9397 0.342 -1104.4551 1123.046)" width="1" height="6">
				</rect>
				
					<rect id="rect4330-8-3-2-6-9-4-7-6-3-9-4-5-0-1-8-1-8-8-5-2-8-5-6-9-0-6" x="253.8" y="1330" inkscape:transform-center-x="-100.45052" inkscape:transform-center-y="17.712054" transform="matrix(0.1736 -0.9848 0.9848 0.1736 -1102.609 1351.9855)" width="1" height="6">
				</rect>
				
					<rect id="rect4330-8-3-2-6-9-4-7-6-3-9-4-5-0-1-8-1-8-8-5-2-8-5-6-9-0-6-3" x="252.9" y="1314.8" inkscape:transform-center-x="-102.00011" inkscape:transform-center-y="-4.0192199e-05" width="6" height="1">
				</rect>
				
					<rect id="rect4330-8-3-2-6-9-4-7-6-3-9-4-5-0-1-8-1-8-8-5-2-8-5-6-9-0-6-3-6" x="253.8" y="1294.6" inkscape:transform-center-x="-100.4505" inkscape:transform-center-y="-17.712145" transform="matrix(-0.1736 -0.9848 0.9848 -0.1736 -979.4013 1773.3599)" width="1" height="6">
				</rect>
				
					<rect id="rect4330-8-3-2-6-9-4-7-6-3-9-4-5-0-1-8-1-8-8-5-2-8-5-6-9-0-6-3-6-0" x="249.2" y="1277.4" inkscape:transform-center-x="-95.848738" inkscape:transform-center-y="-34.88613" transform="matrix(-0.342 -0.9397 0.9397 -0.342 -868.0789 1952.9918)" width="1" height="6">
				</rect>
				
					<rect id="rect4330-8-3-2-6-9-4-7-6-3-9-4-5-0-1-8-1-8-8-5-2-8-5-6-9-0-6-3-6-0-2" x="241.7" y="1261.3" inkscape:transform-center-x="-88.334681" inkscape:transform-center-y="-51.000066" transform="matrix(-0.5 -0.866 0.866 -0.5 -731.621 2106.1978)" width="1" height="6">
				</rect>
				
					<rect id="rect4330-8-3-2-6-9-4-7-6-3-9-4-5-0-1-8-1-8-8-5-2-8-5-6-9-0-6-3-6-0-2-2" x="231.5" y="1246.7" inkscape:transform-center-x="-78.136603" inkscape:transform-center-y="-65.564418" transform="matrix(-0.6428 -0.766 0.766 -0.6428 -576.2288 2230.7708)" width="1" height="6">
				</rect>
				
					<rect id="rect4330-8-3-2-6-9-4-7-6-3-9-4-5-0-1-8-1-8-8-5-2-8-5-6-9-0-6-3-6-0-2-2-0" x="218.9" y="1234.2" inkscape:transform-center-x="-65.56442" inkscape:transform-center-y="-78.13662" transform="matrix(-0.766 -0.6428 0.6428 -0.766 -407.7169 2325.9292)" width="1" height="6">
				</rect>
				
					<rect id="rect4330-8-3-2-6-9-4-7-6-3-9-4-5-0-1-8-1-8-8-5-2-8-5-6-9-0-6-3-6-0-2-2-0-5" x="204.4" y="1224" inkscape:transform-center-x="-51.000035" inkscape:transform-center-y="-88.334688" transform="matrix(-0.866 -0.5 0.5 -0.866 -231.2054 2391.9788)" width="1" height="6">
				</rect>
				
					<rect id="rect4330-8-3-2-6-9-4-7-6-3-9-4-5-0-1-8-1-8-8-5-2-8-5-6-9-0-6-3-6-0-2-2-0-5-6" x="188.2" y="1216.5" inkscape:transform-center-x="-34.886086" inkscape:transform-center-y="-95.848788" transform="matrix(-0.9397 -0.342 0.342 -0.9397 -50.9643 2429.9155)" width="1" height="6">
				</rect>
				
					<rect id="rect4330-8-3-2-6-9-4-7-6-3-9-4-5-0-1-8-1-8-8-5-2-8-5-6-9-0-6-3-6-0-2-2-0-5-6-6" x="171.1" y="1211.8" inkscape:transform-center-x="-17.712121" inkscape:transform-center-y="-100.45047" transform="matrix(-0.9848 -0.1736 0.1736 -0.9848 129.5848 2441.0359)" width="1" height="6">
				</rect>
				
					<rect id="rect4330-6-3-6-2-8-7-8-4-8-0-2-1-0-3-7-2-1-4-8" x="162.4" y="1416.9" inkscape:transform-center-x="-9.020612" inkscape:transform-center-y="103.10619" transform="matrix(0.9962 -8.715572e-002 8.715572e-002 0.9962 -123.0024 19.5936)" width="1" height="3">
				</rect>
				
					<rect id="rect4330-6-3-6-2-8-7-8-4-8-0-2-1-0-3-7-2-1-4-8-2" x="180.1" y="1413.8" inkscape:transform-center-x="-26.78775" inkscape:transform-center-y="99.973326" transform="matrix(0.9659 -0.2588 0.2588 0.9659 -360.1441 94.9798)" width="1" height="3">
				</rect>
				
					<rect id="rect4330-6-3-6-2-8-7-8-4-8-0-2-1-0-3-7-2-1-4-8-2-6" x="197.1" y="1407.6" inkscape:transform-center-x="-43.740975" inkscape:transform-center-y="93.802888" transform="matrix(0.9063 -0.4226 0.4226 0.9063 -576.9987 215.5324)" width="1" height="3">
				</rect>
				
					<rect id="rect4330-6-3-6-2-8-7-8-4-8-0-2-1-0-3-7-2-1-4-8-2-6-7" x="212.7" y="1398.6" inkscape:transform-center-x="-59.365147" inkscape:transform-center-y="84.782205" transform="matrix(0.8192 -0.5736 0.5736 0.8192 -764.4924 375.5039)" width="1" height="3">
				</rect>
				
					<rect id="rect4330-6-3-6-2-8-7-8-4-8-0-2-1-0-3-7-2-1-4-8-2-6-7-7" x="226.5" y="1387" inkscape:transform-center-x="-73.185559" inkscape:transform-center-y="73.185531" transform="matrix(0.7071 -0.7071 0.7071 0.7071 -915.3068 567.2246)" width="1" height="3">
				</rect>
				
					<rect id="rect4330-6-3-6-2-8-7-8-4-8-0-2-1-0-3-7-2-1-4-8-2-6-7-7-4" x="238.1" y="1373.2" inkscape:transform-center-x="-84.782234" inkscape:transform-center-y="59.365161" transform="matrix(0.5736 -0.8192 0.8192 0.5736 -1024.2961 781.6752)" width="1" height="3">
				</rect>
				
					<rect id="rect4330-6-3-6-2-8-7-8-4-8-0-2-1-0-3-7-2-1-4-8-2-6-7-7-4-7" x="247.2" y="1357.5" inkscape:transform-center-x="-93.802836" inkscape:transform-center-y="43.740986" transform="matrix(0.4226 -0.9063 0.9063 0.4226 -1088.7122 1009.1456)" width="1" height="3">
				</rect>
				
					<rect id="rect4330-6-3-6-2-8-7-8-4-8-0-2-1-0-3-7-2-1-4-8-2-6-7-7-4-7-9" x="253.3" y="1340.6" inkscape:transform-center-x="-99.973266" inkscape:transform-center-y="26.787785" transform="matrix(0.2588 -0.9659 0.9659 0.2588 -1108.2194 1239.9154)" width="1" height="3">
				</rect>
				
					<rect id="rect4330-6-3-6-2-8-7-8-4-8-0-2-1-0-3-7-2-1-4-8-2-6-7-7-4-7-9-6" x="256.5" y="1322.8" inkscape:transform-center-x="-103.1061" inkscape:transform-center-y="9.0206956" transform="matrix(8.715580e-002 -0.9962 0.9962 8.715580e-002 -1084.7095 1464.8882)" width="1" height="3">
				</rect>
				
					<rect id="rect4330-6-3-6-2-8-7-8-4-8-0-2-1-0-3-7-2-1-4-8-2-6-7-7-4-7-9-6-7" x="256.5" y="1304.8" inkscape:transform-center-x="-103.10612" inkscape:transform-center-y="-9.0205758" transform="matrix(-8.715577e-002 -0.9962 0.9962 -8.715577e-002 -1021.9444 1676.1189)" width="1" height="3">
				</rect>
				
					<rect id="rect4330-6-3-6-2-8-7-8-4-8-0-2-1-0-3-7-2-1-4-8-2-6-7-7-4-7-9-6-7-5" x="253.3" y="1287" inkscape:transform-center-x="-99.973287" inkscape:transform-center-y="-26.78776" transform="matrix(-0.2588 -0.9659 0.9659 -0.2588 -925.0747 1867.1891)" width="1" height="3">
				</rect>
				
					<rect id="rect4330-6-3-6-2-8-7-8-4-8-0-2-1-0-3-7-2-1-4-8-2-6-7-7-4-7-9-6-7-5-5" x="247.2" y="1270.1" inkscape:transform-center-x="-93.802848" inkscape:transform-center-y="-43.740956" transform="matrix(-0.4226 -0.9063 0.9063 -0.4226 -800.0916 2033.4031)" width="1" height="3">
				</rect>
				
					<rect id="rect4330-6-3-6-2-8-7-8-4-8-0-2-1-0-3-7-2-1-4-8-2-6-7-7-4-7-9-6-7-5-5-6" x="238.1" y="1254.4" inkscape:transform-center-x="-84.78223" inkscape:transform-center-y="-59.365191" transform="matrix(-0.5736 -0.8192 0.8192 -0.5736 -653.2769 2171.7947)" width="1" height="3">
				</rect>
				
					<rect id="rect4330-6-3-6-2-8-7-8-4-8-0-2-1-0-3-7-2-1-4-8-2-6-7-7-4-7-9-6-7-5-5-6-1" x="226.5" y="1240.6" inkscape:transform-center-x="-73.185566" inkscape:transform-center-y="-73.185572" transform="matrix(-0.7071 -0.7071 0.7071 -0.7071 -490.7134 2280.968)" width="1" height="3">
				</rect>
				
					<rect id="rect4330-6-3-6-2-8-7-8-4-8-0-2-1-0-3-7-2-1-4-8-2-6-7-7-4-7-9-6-7-5-5-6-1-8" x="212.7" y="1229" inkscape:transform-center-x="-59.365165" inkscape:transform-center-y="-84.782236" transform="matrix(-0.8192 -0.5736 0.5736 -0.8192 -317.9038 2360.8003)" width="1" height="3">
				</rect>
				
					<rect id="rect4330-6-3-6-2-8-7-8-4-8-0-2-1-0-3-7-2-1-4-8-2-6-7-7-4-7-9-6-7-5-5-6-1-8-4" x="197.1" y="1220" inkscape:transform-center-x="-43.740977" inkscape:transform-center-y="-93.802859" transform="matrix(-0.9063 -0.4226 0.4226 -0.9063 -139.5354 2412.0593)" width="1" height="3">
				</rect>
				
					<rect id="rect4330-6-3-6-2-8-7-8-4-8-0-2-1-0-3-7-2-1-4-8-2-6-7-7-4-7-9-6-7-5-5-6-1-8-4-6" x="180.1" y="1213.8" inkscape:transform-center-x="-26.787752" inkscape:transform-center-y="-99.9733" transform="matrix(-0.9659 -0.2588 0.2588 -0.9659 40.5936 2435.9971)" width="1" height="3">
				</rect>
				
					<rect id="rect4330-6-3-6-2-8-7-8-4-8-0-2-1-0-3-7-2-1-4-8-2-6-7-7-4-7-9-6-7-5-5-6-1-8-4-6-6" x="162.4" y="1210.7" inkscape:transform-center-x="-9.0206053" inkscape:transform-center-y="-103.10607" transform="matrix(-0.9962 -8.715588e-002 8.715588e-002 -0.9962 219.4949 2433.9707)" width="1" height="3">
				</rect>
			</g>
		</g>
		<g id="g6214">
			<g id="text5762" inkscape:transform-center-y="-93.78668">
				<path id="path6163" inkscape:connector-curvature="0" d="M156,1221.5c0,0.7-0.1,1.3-0.2,1.8c-0.1,0.5-0.3,0.9-0.5,1.2
					c-0.2,0.3-0.4,0.5-0.7,0.7c-0.3,0.1-0.5,0.2-0.9,0.2c-0.3,0-0.6-0.1-0.9-0.2c-0.3-0.1-0.5-0.4-0.7-0.7c-0.2-0.3-0.3-0.7-0.4-1.2
					c-0.1-0.5-0.2-1.1-0.2-1.8c0-0.8,0.1-1.4,0.2-1.9c0.1-0.5,0.3-0.9,0.4-1.2s0.4-0.5,0.7-0.6c0.3-0.1,0.6-0.2,0.9-0.2
					c0.3,0,0.6,0.1,0.8,0.2c0.3,0.1,0.5,0.3,0.7,0.6c0.2,0.3,0.3,0.7,0.4,1.2C155.9,1220.1,156,1220.8,156,1221.5 M154.8,1221.5
					c0-0.5,0-1,0-1.3c0-0.4-0.1-0.6-0.2-0.8c-0.1-0.2-0.2-0.4-0.3-0.4c-0.1-0.1-0.2-0.1-0.4-0.1c-0.2,0-0.3,0-0.4,0.1
					c-0.1,0.1-0.2,0.2-0.3,0.4c-0.1,0.2-0.1,0.5-0.2,0.8c0,0.3,0,0.8,0,1.3c0,0.5,0,1,0,1.3c0,0.3,0.1,0.6,0.2,0.8
					c0.1,0.2,0.2,0.4,0.3,0.4c0.1,0.1,0.3,0.1,0.4,0.1c0.2,0,0.3,0,0.4-0.1c0.1-0.1,0.2-0.2,0.3-0.4c0.1-0.2,0.1-0.5,0.2-0.8
					C154.7,1222.5,154.8,1222,154.8,1221.5"/>
			</g>
			
				<g id="text5762-3" transform="matrix(0.8660254,0.5,-0.5,0.8660254,0,0)" inkscape:transform-center-x="-46.833495" inkscape:transform-center-y="-81.246885">
				<path id="path6166" inkscape:connector-curvature="0" d="M793.1,970.1c0,0.3,0,0.7-0.1,0.9c-0.1,0.3-0.2,0.5-0.4,0.7
					s-0.4,0.3-0.7,0.4c-0.3,0.1-0.6,0.2-1,0.2c-0.4,0-0.7-0.1-1-0.2c-0.3-0.1-0.5-0.3-0.7-0.5c-0.2-0.2-0.3-0.4-0.4-0.7
					c-0.1-0.3-0.1-0.5-0.2-0.8l1.3-0.1c0,0.2,0.1,0.3,0.1,0.4c0.1,0.1,0.1,0.2,0.2,0.3c0.1,0.1,0.2,0.2,0.3,0.2
					c0.1,0.1,0.3,0.1,0.4,0.1c0.3,0,0.5-0.1,0.7-0.3c0.2-0.2,0.2-0.5,0.2-0.8c0-0.2,0-0.4-0.1-0.5c-0.1-0.1-0.2-0.2-0.3-0.3
					c-0.1-0.1-0.2-0.1-0.4-0.2c-0.1,0-0.3,0-0.4,0h-0.4v-1.2h0.4c0.1,0,0.2,0,0.4,0c0.1,0,0.2-0.1,0.3-0.2c0.1-0.1,0.2-0.2,0.3-0.3
					c0.1-0.1,0.1-0.3,0.1-0.5c0-0.3-0.1-0.6-0.2-0.7c-0.1-0.2-0.3-0.3-0.6-0.3c-0.3,0-0.5,0.1-0.6,0.3c-0.2,0.2-0.2,0.4-0.3,0.7
					l-1.2-0.1c0-0.4,0.1-0.7,0.2-0.9c0.1-0.3,0.3-0.5,0.5-0.6s0.4-0.3,0.6-0.4c0.2-0.1,0.5-0.1,0.8-0.1c0.4,0,0.7,0.1,0.9,0.2
					s0.5,0.3,0.6,0.4s0.3,0.4,0.4,0.6s0.1,0.5,0.1,0.8c0,0.2,0,0.4-0.1,0.6c-0.1,0.2-0.1,0.4-0.2,0.5c-0.1,0.2-0.2,0.3-0.4,0.4
					c-0.2,0.1-0.4,0.2-0.6,0.2v0c0.3,0,0.5,0.1,0.7,0.2c0.2,0.1,0.3,0.2,0.5,0.4s0.2,0.3,0.3,0.5C793,969.6,793.1,969.8,793.1,970.1
					"/>
			</g>
			
				<g id="text5762-9" transform="matrix(0.5,0.8660254,-0.8660254,0.5,0,0)" inkscape:transform-center-x="-81.221625" inkscape:transform-center-y="-46.893372">
				<path id="path6169" inkscape:connector-curvature="0" d="M1218.2,431.9c0,0.4,0,0.7-0.1,1c-0.1,0.3-0.2,0.6-0.4,0.8
					c-0.2,0.2-0.4,0.4-0.6,0.5c-0.3,0.1-0.6,0.2-0.9,0.2c-0.7,0-1.3-0.3-1.7-0.9c-0.4-0.6-0.6-1.6-0.6-2.8c0-1.3,0.2-2.4,0.6-3
					c0.4-0.7,1-1,1.7-1c0.2,0,0.5,0,0.7,0.1c0.2,0.1,0.4,0.2,0.5,0.3c0.2,0.1,0.3,0.3,0.4,0.5c0.1,0.2,0.2,0.5,0.3,0.8l-1.2,0.2
					c-0.1-0.3-0.2-0.5-0.3-0.6c-0.1-0.1-0.3-0.2-0.5-0.2c-0.3,0-0.6,0.2-0.8,0.6c-0.2,0.4-0.3,1-0.3,1.8c0.1-0.3,0.3-0.5,0.5-0.6
					c0.2-0.1,0.5-0.2,0.8-0.2c0.3,0,0.5,0.1,0.7,0.2c0.2,0.1,0.4,0.3,0.6,0.5c0.2,0.2,0.3,0.5,0.4,0.8
					C1218.1,431.2,1218.2,431.6,1218.2,431.9 M1217,432c0-0.2,0-0.4-0.1-0.5c0-0.2-0.1-0.3-0.2-0.4c-0.1-0.1-0.2-0.2-0.3-0.3
					c-0.1-0.1-0.2-0.1-0.4-0.1c-0.1,0-0.2,0-0.3,0.1c-0.1,0-0.2,0.1-0.3,0.2c-0.1,0.1-0.2,0.2-0.2,0.4c-0.1,0.1-0.1,0.3-0.1,0.5
					c0,0.2,0,0.4,0.1,0.6c0,0.2,0.1,0.3,0.2,0.5c0.1,0.1,0.2,0.2,0.3,0.3c0.1,0.1,0.2,0.1,0.4,0.1c0.3,0,0.5-0.1,0.6-0.4
					C1216.9,432.7,1217,432.4,1217,432"/>
			</g>
			
				<g id="text5762-4" transform="matrix(0,1,-1,0,0,0)" inkscape:transform-center-x="-93.786682" inkscape:transform-center-y="-5.9241113e-05">
				<path id="path6172" inkscape:connector-curvature="0" d="M1317.5-247.8c0,1.3-0.2,2.3-0.6,3c-0.4,0.7-1,1-1.7,1
					c-0.3,0-0.5,0-0.7-0.1c-0.2-0.1-0.4-0.2-0.6-0.3c-0.2-0.1-0.3-0.3-0.4-0.6c-0.1-0.2-0.2-0.5-0.3-0.8l1.2-0.2
					c0.1,0.3,0.2,0.5,0.3,0.6c0.1,0.1,0.3,0.2,0.5,0.2c0.2,0,0.3,0,0.4-0.1c0.1-0.1,0.2-0.2,0.3-0.4c0.1-0.2,0.2-0.4,0.2-0.7
					c0.1-0.3,0.1-0.7,0.1-1.1c-0.1,0.1-0.1,0.3-0.2,0.4c-0.1,0.1-0.2,0.2-0.3,0.3c-0.1,0.1-0.3,0.1-0.4,0.2c-0.1,0-0.3,0.1-0.4,0.1
					c-0.3,0-0.5-0.1-0.7-0.2c-0.2-0.1-0.4-0.3-0.6-0.5c-0.2-0.2-0.3-0.5-0.4-0.8c-0.1-0.3-0.1-0.7-0.1-1.1c0-0.4,0-0.8,0.1-1.1
					c0.1-0.3,0.2-0.6,0.4-0.8c0.2-0.2,0.4-0.4,0.7-0.5c0.3-0.1,0.6-0.2,0.9-0.2c0.4,0,0.7,0.1,0.9,0.2c0.3,0.1,0.5,0.4,0.7,0.7
					c0.2,0.3,0.3,0.7,0.4,1.2C1317.4-249,1317.5-248.4,1317.5-247.8 M1316.2-248.8c0-0.2,0-0.4-0.1-0.6c0-0.2-0.1-0.4-0.2-0.5
					c-0.1-0.1-0.2-0.2-0.3-0.3c-0.1-0.1-0.2-0.1-0.4-0.1c-0.1,0-0.3,0-0.4,0.1c-0.1,0.1-0.2,0.2-0.3,0.3c-0.1,0.1-0.1,0.3-0.2,0.4
					c0,0.2-0.1,0.4-0.1,0.6c0,0.2,0,0.4,0.1,0.6c0,0.2,0.1,0.3,0.2,0.4c0.1,0.1,0.2,0.2,0.3,0.3c0.1,0.1,0.2,0.1,0.4,0.1
					c0.1,0,0.2,0,0.3-0.1c0.1-0.1,0.2-0.1,0.3-0.2c0.1-0.1,0.2-0.2,0.2-0.4C1316.1-248.4,1316.2-248.6,1316.2-248.8"/>
			</g>
			
				<g id="text5762-18" transform="matrix(-0.5,0.8660254,-0.8660254,-0.5,0,0)" inkscape:transform-center-x="-81.1643" inkscape:transform-center-y="47.015513">
				<path id="path6175" inkscape:connector-curvature="0" d="M1057.7-880.9v-1.1h1.5v-5.2l-1.5,1.1v-1.2l1.6-1.2h1.2v6.4h1.4v1.1
					H1057.7"/>
				<path id="path6177" inkscape:connector-curvature="0" d="M1062.5-880.9v-1c0.1-0.4,0.3-0.7,0.5-1c0.2-0.3,0.4-0.6,0.6-0.8
					c0.2-0.3,0.4-0.5,0.7-0.7c0.2-0.2,0.4-0.4,0.6-0.6c0.2-0.2,0.3-0.4,0.4-0.6c0.1-0.2,0.2-0.4,0.2-0.6c0-0.3-0.1-0.6-0.2-0.7
					c-0.1-0.2-0.3-0.2-0.6-0.2c-0.3,0-0.5,0.1-0.6,0.3c-0.1,0.2-0.2,0.4-0.3,0.8l-1.2-0.1c0-0.3,0.1-0.6,0.2-0.8
					c0.1-0.3,0.2-0.5,0.4-0.7s0.4-0.4,0.6-0.5c0.3-0.1,0.6-0.2,0.9-0.2c0.3,0,0.6,0,0.9,0.1c0.3,0.1,0.5,0.2,0.6,0.4
					c0.2,0.2,0.3,0.4,0.4,0.7c0.1,0.3,0.1,0.6,0.1,0.9c0,0.4-0.1,0.7-0.2,1c-0.1,0.3-0.3,0.6-0.4,0.8c-0.2,0.2-0.4,0.5-0.6,0.7
					l-0.6,0.6c-0.2,0.2-0.4,0.4-0.6,0.6c-0.2,0.2-0.3,0.4-0.4,0.7h2.9v1.2L1062.5-880.9"/>
			</g>
			
				<g id="text5762-31" transform="matrix(-0.8660254,0.5,-0.5,-0.8660254,0,0)" inkscape:transform-center-x="-46.723293" inkscape:transform-center-y="81.301242">
				<path id="path6180" inkscape:connector-curvature="0" d="M520-1306v-1.1h1.5v-5.2l-1.5,1.1v-1.2l1.6-1.2h1.2v6.4h1.4v1.1H520"/>
				<path id="path6182" inkscape:connector-curvature="0" d="M529.2-1308.5c0,0.4-0.1,0.7-0.2,1.1c-0.1,0.3-0.2,0.6-0.4,0.8
					c-0.2,0.2-0.4,0.4-0.7,0.5c-0.3,0.1-0.6,0.2-1,0.2c-0.3,0-0.6-0.1-0.9-0.2c-0.3-0.1-0.5-0.2-0.7-0.4c-0.2-0.2-0.3-0.4-0.4-0.6
					c-0.1-0.2-0.2-0.5-0.2-0.8l1.2-0.1c0,0.1,0.1,0.2,0.1,0.3c0,0.1,0.1,0.2,0.2,0.3c0.1,0.1,0.2,0.2,0.3,0.2
					c0.1,0.1,0.2,0.1,0.4,0.1c0.3,0,0.6-0.1,0.7-0.4s0.3-0.6,0.3-1c0-0.2,0-0.4-0.1-0.5c0-0.2-0.1-0.3-0.2-0.4
					c-0.1-0.1-0.2-0.2-0.3-0.3c-0.1-0.1-0.3-0.1-0.4-0.1c-0.2,0-0.4,0-0.5,0.1c-0.1,0.1-0.2,0.2-0.3,0.3h-1.2l0.2-4.3h3.7v1.1h-2.6
					l-0.1,1.9c0.1-0.1,0.3-0.2,0.5-0.3c0.2-0.1,0.4-0.1,0.7-0.1c0.3,0,0.6,0.1,0.8,0.2c0.2,0.1,0.4,0.3,0.6,0.5
					c0.2,0.2,0.3,0.5,0.4,0.8C529.1-1309.2,529.2-1308.9,529.2-1308.5"/>
			</g>
			<g id="text5762-7" transform="scale(-1,-1)" inkscape:transform-center-y="93.786684">
				<path id="path6185" inkscape:connector-curvature="0" d="M-158.6-1405.3v-1.1h1.5v-5.2l-1.5,1.1v-1.2l1.6-1.2h1.2v6.4h1.4v1.1
					H-158.6"/>
				<path id="path6187" inkscape:connector-curvature="0" d="M-149.4-1407.4c0,0.3,0,0.6-0.1,0.9c-0.1,0.3-0.2,0.5-0.4,0.7
					c-0.2,0.2-0.4,0.4-0.7,0.5c-0.3,0.1-0.6,0.2-1,0.2c-0.4,0-0.7-0.1-1-0.2c-0.3-0.1-0.5-0.3-0.7-0.5c-0.2-0.2-0.3-0.4-0.4-0.7
					c-0.1-0.3-0.1-0.6-0.1-0.9c0-0.3,0-0.5,0.1-0.7c0.1-0.2,0.2-0.4,0.3-0.6c0.1-0.2,0.3-0.3,0.4-0.4c0.2-0.1,0.3-0.2,0.5-0.2v0
					c-0.2,0-0.3-0.1-0.5-0.2c-0.1-0.1-0.3-0.2-0.4-0.4c-0.1-0.2-0.2-0.3-0.2-0.5c-0.1-0.2-0.1-0.4-0.1-0.6c0-0.3,0-0.6,0.1-0.8
					c0.1-0.2,0.2-0.5,0.4-0.6c0.2-0.2,0.4-0.3,0.6-0.4c0.3-0.1,0.6-0.1,0.9-0.1c0.4,0,0.7,0.1,0.9,0.2c0.3,0.1,0.5,0.2,0.6,0.4
					c0.2,0.2,0.3,0.4,0.4,0.6c0.1,0.2,0.1,0.5,0.1,0.8c0,0.2,0,0.4-0.1,0.6c-0.1,0.2-0.1,0.3-0.2,0.5c-0.1,0.2-0.2,0.3-0.4,0.4
					c-0.1,0.1-0.3,0.2-0.5,0.2v0c0.2,0,0.4,0.1,0.5,0.2c0.2,0.1,0.3,0.2,0.4,0.4c0.1,0.2,0.2,0.3,0.3,0.5
					C-149.4-1407.9-149.4-1407.7-149.4-1407.4 M-150.8-1410.9c0-0.2,0-0.3,0-0.4c0-0.1-0.1-0.2-0.1-0.3c-0.1-0.1-0.1-0.2-0.2-0.2
					c-0.1-0.1-0.2-0.1-0.4-0.1c-0.2,0-0.3,0-0.4,0.1c-0.1,0.1-0.2,0.1-0.2,0.2c-0.1,0.1-0.1,0.2-0.1,0.3c0,0.1,0,0.3,0,0.4
					c0,0.1,0,0.3,0,0.4c0,0.1,0.1,0.2,0.1,0.3c0.1,0.1,0.1,0.2,0.2,0.2c0.1,0.1,0.2,0.1,0.4,0.1c0.2,0,0.3,0,0.4-0.1
					c0.1-0.1,0.2-0.1,0.2-0.3c0.1-0.1,0.1-0.2,0.1-0.3S-150.8-1410.8-150.8-1410.9 M-150.7-1407.6c0-0.2,0-0.3,0-0.4
					c0-0.1-0.1-0.3-0.2-0.4c-0.1-0.1-0.2-0.2-0.3-0.3c-0.1-0.1-0.3-0.1-0.5-0.1c-0.2,0-0.3,0-0.4,0.1c-0.1,0.1-0.2,0.2-0.3,0.3
					c-0.1,0.1-0.1,0.2-0.2,0.4c0,0.1,0,0.3,0,0.5c0,0.2,0,0.4,0,0.5c0,0.2,0.1,0.3,0.2,0.4c0.1,0.1,0.2,0.2,0.3,0.3
					c0.1,0.1,0.3,0.1,0.5,0.1s0.3,0,0.5-0.1c0.1-0.1,0.2-0.2,0.3-0.3c0.1-0.1,0.1-0.3,0.2-0.4
					C-150.7-1407.2-150.7-1407.4-150.7-1407.6"/>
			</g>
			
				<g id="text5762-0" transform="matrix(-0.8660254,-0.5,0.5,-0.8660254,0,0)" inkscape:transform-center-x="46.892011" inkscape:transform-center-y="81.268166">
				<path id="path6190" inkscape:connector-curvature="0" d="M-795.7-1152.1v-1c0.1-0.4,0.3-0.7,0.5-1c0.2-0.3,0.4-0.6,0.6-0.8
					c0.2-0.3,0.4-0.5,0.7-0.7c0.2-0.2,0.4-0.4,0.6-0.6c0.2-0.2,0.3-0.4,0.4-0.6c0.1-0.2,0.2-0.4,0.2-0.6c0-0.3-0.1-0.6-0.2-0.7
					c-0.1-0.2-0.3-0.2-0.6-0.2c-0.3,0-0.5,0.1-0.6,0.3c-0.1,0.2-0.2,0.4-0.3,0.8l-1.2-0.1c0-0.3,0.1-0.6,0.2-0.8
					c0.1-0.3,0.2-0.5,0.4-0.7c0.2-0.2,0.4-0.4,0.6-0.5c0.3-0.1,0.6-0.2,0.9-0.2c0.3,0,0.6,0,0.9,0.1c0.3,0.1,0.5,0.2,0.6,0.4
					c0.2,0.2,0.3,0.4,0.4,0.7c0.1,0.3,0.1,0.6,0.1,0.9c0,0.4-0.1,0.7-0.2,1c-0.1,0.3-0.3,0.6-0.4,0.8c-0.2,0.2-0.4,0.5-0.6,0.7
					l-0.6,0.6c-0.2,0.2-0.4,0.4-0.6,0.6c-0.2,0.2-0.3,0.4-0.4,0.7h2.9v1.2H-795.7"/>
				<path id="path6192" inkscape:connector-curvature="0" d="M-790.4-1152.1v-1.1h1.5v-5.2l-1.5,1.1v-1.2l1.6-1.2h1.2v6.4h1.4v1.1
					H-790.4"/>
			</g>
			
				<g id="text5762-2" transform="matrix(-0.5,-0.8660254,0.8660254,-0.5,0,0)" inkscape:transform-center-x="81.287814" inkscape:transform-center-y="46.80154">
				<path id="path6195" inkscape:connector-curvature="0" d="M-1220.7-614.4v-1c0.1-0.4,0.3-0.7,0.5-1c0.2-0.3,0.4-0.6,0.6-0.8
					c0.2-0.3,0.4-0.5,0.7-0.7c0.2-0.2,0.4-0.4,0.6-0.6c0.2-0.2,0.3-0.4,0.4-0.6c0.1-0.2,0.2-0.4,0.2-0.6c0-0.3-0.1-0.6-0.2-0.7
					c-0.1-0.2-0.3-0.2-0.6-0.2c-0.3,0-0.5,0.1-0.6,0.3c-0.1,0.2-0.2,0.4-0.3,0.8l-1.2-0.1c0-0.3,0.1-0.6,0.2-0.8
					c0.1-0.3,0.2-0.5,0.4-0.7s0.4-0.4,0.6-0.5c0.3-0.1,0.6-0.2,0.9-0.2c0.3,0,0.6,0,0.9,0.1c0.3,0.1,0.5,0.2,0.6,0.4
					c0.2,0.2,0.3,0.4,0.4,0.7c0.1,0.3,0.1,0.6,0.1,0.9c0,0.4-0.1,0.7-0.2,1c-0.1,0.3-0.3,0.6-0.4,0.8c-0.2,0.2-0.4,0.5-0.6,0.7
					l-0.6,0.6c-0.2,0.2-0.4,0.4-0.6,0.6c-0.2,0.2-0.3,0.4-0.4,0.7h2.9v1.2L-1220.7-614.4"/>
				<path id="path6197" inkscape:connector-curvature="0" d="M-1211.9-615.9v1.5h-1.2v-1.5h-2.8v-1.1l2.6-4.9h1.4v4.9h0.8v1.1
					H-1211.9 M-1213.1-619.5c0-0.1,0-0.1,0-0.2c0-0.1,0-0.2,0-0.3c0-0.1,0-0.2,0-0.3c0-0.1,0-0.2,0-0.2c0,0,0,0.1-0.1,0.2l-0.1,0.2
					c0,0.1-0.1,0.2-0.1,0.3l-0.1,0.2l-1.4,2.7h1.8L-1213.1-619.5"/>
			</g>
			
				<g id="text5762-5" transform="matrix(0,-1,1,0,0,0)" inkscape:transform-center-x="93.840389" inkscape:transform-center-y="-5.896875e-05">
				<path id="path6200" inkscape:connector-curvature="0" d="M-1320,63.8v-1c0.1-0.4,0.3-0.7,0.5-1c0.2-0.3,0.4-0.6,0.6-0.8
					c0.2-0.3,0.4-0.5,0.7-0.7c0.2-0.2,0.4-0.4,0.6-0.6c0.2-0.2,0.3-0.4,0.4-0.6c0.1-0.2,0.2-0.4,0.2-0.6c0-0.3-0.1-0.6-0.2-0.7
					c-0.1-0.2-0.3-0.2-0.6-0.2c-0.3,0-0.5,0.1-0.6,0.3c-0.1,0.2-0.2,0.4-0.3,0.8l-1.2-0.1c0-0.3,0.1-0.6,0.2-0.8
					c0.1-0.3,0.2-0.5,0.4-0.7c0.2-0.2,0.4-0.4,0.6-0.5c0.3-0.1,0.6-0.2,0.9-0.2c0.3,0,0.6,0,0.9,0.1c0.3,0.1,0.5,0.2,0.6,0.4
					c0.2,0.2,0.3,0.4,0.4,0.7c0.1,0.3,0.1,0.6,0.1,0.9c0,0.4-0.1,0.7-0.2,1c-0.1,0.3-0.3,0.6-0.4,0.8c-0.2,0.2-0.4,0.5-0.6,0.7
					l-0.6,0.6c-0.2,0.2-0.4,0.4-0.6,0.6c-0.2,0.2-0.3,0.4-0.4,0.7h2.9v1.2L-1320,63.8"/>
				<path id="path6202" inkscape:connector-curvature="0" d="M-1310.6,57.5c0,0-0.3,0.5-0.8,1.6c-0.2,0.5-0.5,1-0.6,1.5
					c-0.2,0.5-0.3,1-0.4,1.6c-0.1,0.5-0.2,1.1-0.2,1.7h-1.3c0-0.6,0.1-1.2,0.2-1.7c0.1-0.5,0.3-1.1,0.5-1.6c0.2-0.5,0.4-1,0.7-1.5
					l0.8-1.5h-3.1v-1.2h4.2V57.5"/>
			</g>
			
				<g id="text5762-8" transform="matrix(0.5,-0.8660254,0.8660254,0.5,0,0)" inkscape:transform-center-x="81.264587" inkscape:transform-center-y="-46.814929">
				<path id="path6205" inkscape:connector-curvature="0" d="M-1062.5,698.8c0,0.3,0,0.7-0.1,0.9c-0.1,0.3-0.2,0.5-0.4,0.7
					s-0.4,0.3-0.7,0.4c-0.3,0.1-0.6,0.2-1,0.2c-0.4,0-0.7-0.1-1-0.2c-0.3-0.1-0.5-0.3-0.7-0.5c-0.2-0.2-0.3-0.4-0.4-0.7
					c-0.1-0.3-0.1-0.5-0.2-0.8l1.3-0.1c0,0.2,0.1,0.3,0.1,0.4c0.1,0.1,0.1,0.2,0.2,0.3c0.1,0.1,0.2,0.2,0.3,0.2
					c0.1,0.1,0.3,0.1,0.4,0.1c0.3,0,0.5-0.1,0.7-0.3c0.2-0.2,0.2-0.5,0.2-0.8c0-0.2,0-0.4-0.1-0.5c-0.1-0.1-0.2-0.2-0.3-0.3
					c-0.1-0.1-0.2-0.1-0.4-0.2c-0.1,0-0.3,0-0.4,0h-0.4v-1.2h0.4c0.1,0,0.2,0,0.4,0c0.1,0,0.2-0.1,0.3-0.2c0.1-0.1,0.2-0.2,0.3-0.3
					c0.1-0.1,0.1-0.3,0.1-0.5c0-0.3-0.1-0.6-0.2-0.7c-0.1-0.2-0.3-0.3-0.6-0.3c-0.3,0-0.5,0.1-0.6,0.3c-0.2,0.2-0.2,0.4-0.3,0.7
					l-1.2-0.1c0-0.4,0.1-0.7,0.2-0.9s0.3-0.5,0.5-0.6c0.2-0.2,0.4-0.3,0.6-0.4c0.2-0.1,0.5-0.1,0.8-0.1c0.4,0,0.7,0.1,0.9,0.2
					s0.5,0.3,0.6,0.4s0.3,0.4,0.4,0.6c0.1,0.2,0.1,0.5,0.1,0.8c0,0.2,0,0.4-0.1,0.6c-0.1,0.2-0.1,0.4-0.2,0.5
					c-0.1,0.2-0.2,0.3-0.4,0.4c-0.2,0.1-0.4,0.2-0.6,0.2v0c0.3,0,0.5,0.1,0.7,0.2c0.2,0.1,0.3,0.2,0.5,0.4c0.1,0.2,0.2,0.3,0.3,0.5
					C-1062.5,698.4-1062.5,698.6-1062.5,698.8"/>
				<path id="path6207" inkscape:connector-curvature="0" d="M-1057.5,697.1c0,0.7-0.1,1.3-0.2,1.8c-0.1,0.5-0.3,0.9-0.5,1.2
					c-0.2,0.3-0.4,0.5-0.7,0.7c-0.3,0.1-0.5,0.2-0.9,0.2s-0.6-0.1-0.9-0.2s-0.5-0.4-0.7-0.7c-0.2-0.3-0.3-0.7-0.4-1.2
					c-0.1-0.5-0.2-1.1-0.2-1.8c0-0.8,0.1-1.4,0.2-1.9c0.1-0.5,0.3-0.9,0.4-1.2c0.2-0.3,0.4-0.5,0.7-0.6c0.3-0.1,0.6-0.2,0.9-0.2
					c0.3,0,0.6,0.1,0.8,0.2c0.3,0.1,0.5,0.3,0.7,0.6s0.3,0.7,0.4,1.2C-1057.6,695.7-1057.5,696.3-1057.5,697.1 M-1058.7,697.1
					c0-0.5,0-1,0-1.3c0-0.4-0.1-0.6-0.2-0.8c-0.1-0.2-0.2-0.4-0.3-0.4c-0.1-0.1-0.2-0.1-0.4-0.1c-0.2,0-0.3,0-0.4,0.1
					c-0.1,0.1-0.2,0.2-0.3,0.4c-0.1,0.2-0.1,0.5-0.2,0.8c0,0.3,0,0.8,0,1.3c0,0.5,0,1,0,1.3s0.1,0.6,0.2,0.8
					c0.1,0.2,0.2,0.4,0.3,0.4c0.1,0.1,0.3,0.1,0.4,0.1c0.2,0,0.3,0,0.4-0.1c0.1-0.1,0.2-0.2,0.3-0.4c0.1-0.2,0.1-0.5,0.2-0.8
					C-1058.8,698.1-1058.7,697.6-1058.7,697.1"/>
			</g>
			
				<g id="text5762-93" transform="matrix(0.8660254,-0.5,0.5,0.8660254,0,0)" inkscape:transform-center-x="46.94511" inkscape:transform-center-y="-81.182435">
				<path id="path6210" inkscape:connector-curvature="0" d="M-524.7,1123.9c0,0.3,0,0.7-0.1,0.9c-0.1,0.3-0.2,0.5-0.4,0.7
					s-0.4,0.3-0.7,0.4c-0.3,0.1-0.6,0.2-1,0.2c-0.4,0-0.7-0.1-1-0.2c-0.3-0.1-0.5-0.3-0.7-0.5c-0.2-0.2-0.3-0.4-0.4-0.7
					c-0.1-0.3-0.1-0.5-0.2-0.8l1.3-0.1c0,0.2,0.1,0.3,0.1,0.4c0.1,0.1,0.1,0.2,0.2,0.3c0.1,0.1,0.2,0.2,0.3,0.2
					c0.1,0.1,0.3,0.1,0.4,0.1c0.3,0,0.5-0.1,0.7-0.3c0.2-0.2,0.2-0.5,0.2-0.8c0-0.2,0-0.4-0.1-0.5c-0.1-0.1-0.2-0.2-0.3-0.3
					c-0.1-0.1-0.2-0.1-0.4-0.2c-0.1,0-0.3,0-0.4,0h-0.4v-1.2h0.4c0.1,0,0.2,0,0.4,0c0.1,0,0.2-0.1,0.3-0.2c0.1-0.1,0.2-0.2,0.3-0.3
					c0.1-0.1,0.1-0.3,0.1-0.5c0-0.3-0.1-0.6-0.2-0.7c-0.1-0.2-0.3-0.3-0.6-0.3c-0.3,0-0.5,0.1-0.6,0.3s-0.2,0.4-0.3,0.7l-1.2-0.1
					c0-0.4,0.1-0.7,0.2-0.9c0.1-0.3,0.3-0.5,0.5-0.6s0.4-0.3,0.6-0.4c0.2-0.1,0.5-0.1,0.8-0.1c0.4,0,0.7,0.1,0.9,0.2
					c0.3,0.1,0.5,0.3,0.6,0.4s0.3,0.4,0.4,0.6c0.1,0.2,0.1,0.5,0.1,0.8c0,0.2,0,0.4-0.1,0.6c-0.1,0.2-0.1,0.4-0.2,0.5
					c-0.1,0.2-0.2,0.3-0.4,0.4c-0.2,0.1-0.4,0.2-0.6,0.2v0c0.3,0,0.5,0.1,0.7,0.2c0.2,0.1,0.3,0.2,0.5,0.4c0.1,0.2,0.2,0.3,0.3,0.5
					C-524.8,1123.5-524.7,1123.7-524.7,1123.9"/>
				<path id="path6212" inkscape:connector-curvature="0" d="M-519.7,1123.9c0,0.3,0,0.7-0.1,0.9c-0.1,0.3-0.2,0.5-0.4,0.7
					s-0.4,0.3-0.7,0.4c-0.3,0.1-0.6,0.2-1,0.2c-0.4,0-0.7-0.1-1-0.2c-0.3-0.1-0.5-0.3-0.7-0.5c-0.2-0.2-0.3-0.4-0.4-0.7
					c-0.1-0.3-0.1-0.5-0.2-0.8l1.3-0.1c0,0.2,0.1,0.3,0.1,0.4c0.1,0.1,0.1,0.2,0.2,0.3c0.1,0.1,0.2,0.2,0.3,0.2
					c0.1,0.1,0.3,0.1,0.4,0.1c0.3,0,0.5-0.1,0.7-0.3c0.2-0.2,0.2-0.5,0.2-0.8c0-0.2,0-0.4-0.1-0.5c-0.1-0.1-0.2-0.2-0.3-0.3
					c-0.1-0.1-0.2-0.1-0.4-0.2c-0.1,0-0.3,0-0.4,0h-0.4v-1.2h0.4c0.1,0,0.2,0,0.4,0c0.1,0,0.2-0.1,0.3-0.2c0.1-0.1,0.2-0.2,0.3-0.3
					c0.1-0.1,0.1-0.3,0.1-0.5c0-0.3-0.1-0.6-0.2-0.7c-0.1-0.2-0.3-0.3-0.6-0.3c-0.3,0-0.5,0.1-0.6,0.3s-0.2,0.4-0.3,0.7l-1.2-0.1
					c0-0.4,0.1-0.7,0.2-0.9c0.1-0.3,0.3-0.5,0.5-0.6s0.4-0.3,0.6-0.4c0.2-0.1,0.5-0.1,0.8-0.1c0.4,0,0.7,0.1,0.9,0.2
					c0.3,0.1,0.5,0.3,0.6,0.4s0.3,0.4,0.4,0.6c0.1,0.2,0.1,0.5,0.1,0.8c0,0.2,0,0.4-0.1,0.6c-0.1,0.2-0.1,0.4-0.2,0.5
					c-0.1,0.2-0.2,0.3-0.4,0.4c-0.2,0.1-0.4,0.2-0.6,0.2v0c0.3,0,0.5,0.1,0.7,0.2c0.2,0.1,0.3,0.2,0.5,0.4c0.1,0.2,0.2,0.3,0.3,0.5
					C-519.7,1123.5-519.7,1123.7-519.7,1123.9"/>
			</g>
		</g>
	</g>
</g>
</svg>
