<?xml version="1.0" encoding="utf-8"?>
<!-- Generator: Adobe Illustrator 19.2.1, SVG Export Plug-In . SVG Version: 6.00 Build 0)  -->
<svg version="1.1"
	 id="svg2" inkscape:version="0.48.4 r9939" sodipodi:docname="pfd_mask.svg" xmlns:cc="http://creativecommons.org/ns#" xmlns:dc="http://purl.org/dc/elements/1.1/" xmlns:inkscape="http://www.inkscape.org/namespaces/inkscape" xmlns:rdf="http://www.w3.org/1999/02/22-rdf-syntax-ns#" xmlns:sodipodi="http://sodipodi.sourceforge.net/DTD/sodipodi-0.dtd" xmlns:svg="http://www.w3.org/2000/svg"
	 xmlns="http://www.w3.org/2000/svg" xmlns:xlink="http://www.w3.org/1999/xlink" x="0px" y="0px" width="300px" height="300px"
	 viewBox="0 0 300 300" style="enable-background:new 0 0 300 300;" xml:space="preserve">
<style type="text/css">
	.st0{fill:#A9C5EE;}
</style>
<g id="layer1" transform="translate(0,-752.36218)" inkscape:groupmode="layer" inkscape:label="Layer 1">
	<path id="rect11308-0-8-0" inkscape:connector-curvature="0" class="st0" d="M5.4,752.4c-3,0-5.4,2.4-5.4,5.4v204.4v84.8
		c0,3,2.4,5.4,5.4,5.4H75h150h69.6c3,0,5.4-2.4,5.4-5.4v-84.8V757.7c0-3-2.4-5.4-5.4-5.4H5.4z M30.4,789.9h25.2c3,0,5.4,2.4,5.4,5.4
		v161.5c0,3-2.4,5.4-5.4,5.4H30.4c-3,0-5.4-2.4-5.4-5.4V795.2C25,792.3,27.4,789.9,30.4,789.9z M239,789.9h24c4.4,0,8,3.6,8,8v156.3
		c0,4.4-3.6,8-8,8h-24c-4.4,0-8-3.6-8-8V797.9C231,793.4,234.6,789.9,239,789.9z M75,807.7c0-3,2.4-5.4,5.4-5.4H90h120h9.6
		c3,0,5.4,2.4,5.4,5.4v9.6v120v19.4c0,3-2.4,5.4-5.4,5.4H195h-90H80.4c-3,0-5.4-2.4-5.4-5.4v-19.4v-120V807.7z M275,807.7
		c0-3,2.4-5.4,5.4-5.4h4.6l0,0c2.6,0,4.8,1.9,5.3,4.4l3.6,20.1c0.1,0.3,0.1,0.6,0.1,1v8.1v82.9v8.1c0,0.3,0,0.6-0.1,1l-3.6,20.1
		c-0.5,2.6-2.7,4.4-5.3,4.4l0,0h-4.6c-3,0-5.4-2.4-5.4-5.4V807.7z M150,986.4c28.1,0,53.7,10.4,73.2,27.6c1.1,1,1.8,2.5,1.8,4v3.7
		c0,1.4,0.5,2.7,1.5,3.7c2.5,2.7,4.9,5.4,7.1,8.3c2.7,3.5,0.1,8.6-4.3,8.6H225H75h-4.2c-4.4,0-7-5.1-4.3-8.6c2.2-2.9,4.6-5.7,7-8.3
		c0.9-1,1.5-2.3,1.5-3.7v-3.7c0-1.5,0.6-3,1.8-4C96.3,996.8,121.9,986.4,150,986.4L150,986.4z"/>
</g>
</svg>
