<?xml version="1.0" encoding="utf-8"?>
<!-- Generator: Adobe Illustrator 17.1.0, SVG Export Plug-In . SVG Version: 6.00 Build 0)  -->
<!DOCTYPE svg PUBLIC "-//W3C//DTD SVG 1.1//EN" "http://www.w3.org/Graphics/SVG/1.1/DTD/svg11.dtd">
<svg version="1.1"
	 id="svg2" xmlns:dc="http://purl.org/dc/elements/1.1/" xmlns:cc="http://creativecommons.org/ns#" xmlns:rdf="http://www.w3.org/1999/02/22-rdf-syntax-ns#" xmlns:svg="http://www.w3.org/2000/svg" xmlns:sodipodi="http://sodipodi.sourceforge.net/DTD/sodipodi-0.dtd" xmlns:inkscape="http://www.inkscape.org/namespaces/inkscape" sodipodi:docname="pfd_alt_scale.svg" inkscape:version="0.48.4 r9939"
	 xmlns="http://www.w3.org/2000/svg" xmlns:xlink="http://www.w3.org/1999/xlink" x="0px" y="0px" viewBox="0 0 5 300"
	 enable-background="new 0 0 5 300" xml:space="preserve">
<sodipodi:namedview  showguides="true" showgrid="false" inkscape:cy="262.521" inkscape:cx="-82.285561" inkscape:zoom="2.828427" borderopacity="1.0" bordercolor="#666666" pagecolor="#ffffff" id="base" inkscape:snap-intersection-paths="true" inkscape:snap-center="false" inkscape:object-paths="false" inkscape:snap-smooth-nodes="false" inkscape:snap-object-midpoints="false" inkscape:window-maximized="1" inkscape:object-nodes="true" inkscape:pageopacity="0.0" inkscape:snap-nodes="true" inkscape:pageshadow="2" inkscape:snap-midpoints="true" inkscape:document-units="px" inkscape:current-layer="layer1" inkscape:window-width="1920" inkscape:window-height="1005" inkscape:window-x="-9" inkscape:window-y="-9" inkscape:guide-bbox="true">
	</sodipodi:namedview>
<g id="layer1" transform="translate(0,-752.36218)" inkscape:label="Layer 1" inkscape:groupmode="layer">
	<g>
		<path id="rect13753-45_8_" inkscape:connector-curvature="0" fill="#253033" d="M0,766.4v1h5v-1H0z M0,781.4v1h5v-1H0z M0,796.4v1
			h5v-1H0z M0,811.4v1h5v-1H0z M0,826.4v1h5v-1H0z M0,841.4v1h5v-1H0z M0,856.4v1h5v-1H0z M0,871.4v1h5v-1H0z M0,886.4v1h5v-1H0z
			 M0,901.4v1h5v-1H0z M0,916.4v1h5v-1H0z M0,931.4v1h5v-1H0z M0,946.4v1h5v-1H0z M0,961.4v1h5v-1H0z M0,976.4v1h5v-1H0z M0,991.4v1
			h5v-1H0z M0,1006.4v1h5v-1H0z M0,1021.4v1h5v-1H0z M0,1036.4v1h5v-1H0z M0,1051.4v1h5v-1H0z"/>
	</g>
</g>
</svg>
