<?xml version="1.0" encoding="utf-8"?>
<!-- Generator: Adobe Illustrator 17.1.0, SVG Export Plug-In . SVG Version: 6.00 Build 0)  -->
<!DOCTYPE svg PUBLIC "-//W3C//DTD SVG 1.1//EN" "http://www.w3.org/Graphics/SVG/1.1/DTD/svg11.dtd">
<svg version="1.1"
	 id="svg2" xmlns:rdf="http://www.w3.org/1999/02/22-rdf-syntax-ns#" xmlns:dc="http://purl.org/dc/elements/1.1/" xmlns:inkscape="http://www.inkscape.org/namespaces/inkscape" xmlns:cc="http://creativecommons.org/ns#" xmlns:svg="http://www.w3.org/2000/svg" xmlns:sodipodi="http://sodipodi.sourceforge.net/DTD/sodipodi-0.dtd" sodipodi:docname="pfd_mask.svg" inkscape:version="0.48.4 r9939"
	 xmlns="http://www.w3.org/2000/svg" xmlns:xlink="http://www.w3.org/1999/xlink" x="0px" y="0px" viewBox="0 0 1031 731"
	 enable-background="new 0 0 1031 731" xml:space="preserve">
<polyline points="511.8,493.7 518.1,493.7 522.9,462 507,462 "/>
<polyline fill="#00C853" points="512.8,492.4 517.1,492.4 520.5,465.7 509.4,465.7 "/>
<path fill="#425A62" d="M729,465.8v52.9C664.3,486.9,591.5,469,514.5,469S364.7,486.9,300,518.7h-0.4v-52.9L729,465.8L729,465.8z"/>
<rect x="514.5" y="44.9" fill="#253033" width="1" height="402.9"/>
<rect x="303.2" y="245.9" fill="#253033" width="422.8" height="1"/>
<path fill="#304048" d="M0,0v731h1031V0H0L0,0z M516,46.4c110.5,0,200,89.5,200,200s-89.6,200-200,200c-110.5,0-200-89.5-200-200
	S405.5,46.4,516,46.4z M729.4,517.6h-429v-49.9h429V517.6z M791.9,453.1h-50.8V39.3h50.8V453.1z"/>
<path fill="#222B30" d="M292.1,34.9v504h515.3v-504L292.1,34.9L292.1,34.9z M515.4,46.2c110.5,0,200,89.5,200,200s-89.5,200-200,200
	s-200-89.5-200-200S404.9,46.2,515.4,46.2z M729.4,517.6h-429v-49.9h429V517.6z M791.9,453.1h-50.8V39.3h50.8V453.1z"/>
<path fill="#FFFFFF" d="M286,29.4v504h515.4v-504L286,29.4L286,29.4z M515.5,48.8c109,0,197.3,88.4,197.3,197.3
	s-88.3,197.4-197.3,197.4s-197.3-88.3-197.3-197.3S406.5,48.8,515.5,48.8z M729.4,517.6h-429v-49.9h429V517.6z M791.9,453.1h-50.8
	V39.3h50.8V453.1z"/>
<rect x="16.7" y="34.4" fill="#232D31" width="257.7" height="375.9"/>
<rect x="11.7" y="29.4" fill="#FFFFFF" width="257.7" height="375.9"/>
<rect x="16.7" y="428.6" fill="#232D31" width="257.7" height="109.8"/>
<rect x="11.7" y="423.6" fill="#FFFFFF" width="257.7" height="109.8"/>
<rect x="26.5" y="43.8" fill="#253033" width="240.3" height="357.3"/>
<rect x="21.5" y="38.8" fill="#425A62" width="240.3" height="357.3"/>
<rect x="26.6" y="436.5" fill="#253033" width="240.3" height="94"/>
<rect x="21.6" y="431.5" fill="#425A62" width="240.3" height="94"/>
<rect x="720.1" y="38.8" fill="#253033" width="15" height="414.8"/>
<rect x="304.4" y="446.2" fill="#253033" width="430.7" height="12.4"/>
<path fill="#425A62" d="M300.8,38.8v414.8h429.3V38.8H300.8z M515.5,444.1c-109.3,0-197.9-88.6-197.9-197.9s88.6-198,197.9-198
	s197.9,88.6,197.9,198S624.8,444.1,515.5,444.1z"/>
<polygon fill="#253033" points="798,43.8 798,458.6 745.1,458.6 745.1,453.1 791.9,453.1 791.9,43.8 "/>
<path fill="#425A62" d="M740.1,38.8v414.8H793V38.8H740.1z M791.9,453.1h-50.8V39.3h50.8V453.1z"/>
<polygon fill="#253033" points="735.2,470 735.2,525.3 304.6,525.3 304.6,517.6 729.4,517.6 729.4,470 "/>
<path fill="#425A62" d="M299.6,465v55.3h430.7V465H299.6L299.6,465z M729.4,517.6h-429v-49.9h429V517.6z"/>
<rect x="66.7" y="45.8" fill="#1C2324" width="53" height="31.6"/>
<rect x="64.7" y="43.8" fill="#253034" width="53" height="31.6"/>
<rect x="67.9" y="47.1" fill="#1C2326" width="48.5" height="26.9"/>
<rect x="66.9" y="46.1" fill="#FFFFFF" width="48.5" height="26.9"/>
<rect x="162.4" y="45.8" fill="#1C2324" width="53" height="31.6"/>
<rect x="160.4" y="43.8" fill="#253034" width="53" height="31.6"/>
<rect x="163.7" y="47.1" fill="#1C2326" width="48.5" height="26.9"/>
<rect x="162.7" y="46.1" fill="#FFFFFF" width="48.5" height="26.9"/>
<rect x="189.9" y="103.6" fill="#1C2324" width="53" height="31.6"/>
<rect x="187.9" y="101.6" fill="#253034" width="53" height="31.6"/>
<rect x="191.2" y="105" fill="#1C2326" width="48.5" height="26.9"/>
<rect x="190.2" y="104" fill="#FFFFFF" width="48.5" height="26.9"/>
<rect x="189.9" y="145.9" fill="#1C2324" width="53" height="31.6"/>
<rect x="187.9" y="143.9" fill="#253034" width="53" height="31.6"/>
<rect x="191.2" y="147.2" fill="#1C2326" width="48.5" height="26.9"/>
<rect x="190.2" y="146.2" fill="#FFFFFF" width="48.5" height="26.9"/>
<rect x="42.4" y="103.6" fill="#1C2324" width="53" height="31.6"/>
<rect x="40.4" y="101.6" fill="#253034" width="53" height="31.6"/>
<rect x="43.7" y="105" fill="#1C2326" width="48.5" height="26.9"/>
<rect x="42.7" y="104" fill="#FFFFFF" width="48.5" height="26.9"/>
<rect x="42.4" y="145.9" fill="#1C2324" width="53" height="31.6"/>
<rect x="40.4" y="143.9" fill="#253034" width="53" height="31.6"/>
<rect x="43.7" y="147.2" fill="#1C2326" width="48.5" height="26.9"/>
<rect x="42.7" y="146.2" fill="#FFFFFF" width="48.5" height="26.9"/>
<rect x="66.7" y="192.4" fill="#1C2324" width="53" height="31.6"/>
<rect x="64.7" y="190.4" fill="#253034" width="53" height="31.6"/>
<rect x="67.9" y="193.7" fill="#1C2326" width="48.5" height="26.9"/>
<rect x="66.9" y="192.7" fill="#FFFFFF" width="48.5" height="26.9"/>
<rect x="163.4" y="192.4" fill="#1C2324" width="53" height="31.6"/>
<rect x="161.4" y="190.4" fill="#253034" width="53" height="31.6"/>
<rect x="164.7" y="193.7" fill="#1C2326" width="48.5" height="26.9"/>
<rect x="163.7" y="192.7" fill="#FFFFFF" width="48.5" height="26.9"/>
<rect x="163.4" y="233.6" fill="#1C2324" width="53" height="31.6"/>
<rect x="161.4" y="231.6" fill="#253034" width="53" height="31.6"/>
<rect x="164.7" y="235" fill="#1C2326" width="48.5" height="26.9"/>
<rect x="163.7" y="234" fill="#FFFFFF" width="48.5" height="26.9"/>
<rect x="66.7" y="233.6" fill="#1C2324" width="53" height="31.6"/>
<rect x="64.7" y="231.6" fill="#253034" width="53" height="31.6"/>
<rect x="67.9" y="235" fill="#1C2326" width="48.5" height="26.9"/>
<rect x="66.9" y="234" fill="#FFFFFF" width="48.5" height="26.9"/>
<rect x="42.4" y="279.1" fill="#1C2324" width="53" height="31.6"/>
<rect x="40.4" y="277.1" fill="#253034" width="53" height="31.6"/>
<rect x="43.7" y="280.5" fill="#1C2326" width="48.5" height="26.9"/>
<rect x="42.7" y="279.5" fill="#FFFFFF" width="48.5" height="26.9"/>
<rect x="187.7" y="279.1" fill="#1C2324" width="53" height="31.6"/>
<rect x="185.7" y="277.1" fill="#253034" width="53" height="31.6"/>
<rect x="188.9" y="280.5" fill="#1C2326" width="48.5" height="26.9"/>
<rect x="187.9" y="279.5" fill="#FFFFFF" width="48.5" height="26.9"/>
<rect x="187.7" y="318.4" fill="#1C2324" width="53" height="31.6"/>
<rect x="185.7" y="316.4" fill="#253034" width="53" height="31.6"/>
<rect x="188.9" y="319.7" fill="#1C2326" width="48.5" height="26.9"/>
<rect x="187.9" y="318.7" fill="#FFFFFF" width="48.5" height="26.9"/>
<rect x="42.4" y="318.4" fill="#1C2324" width="53" height="31.6"/>
<rect x="40.4" y="316.4" fill="#253034" width="53" height="31.6"/>
<rect x="43.7" y="319.7" fill="#1C2326" width="48.5" height="26.9"/>
<rect x="42.7" y="318.7" fill="#FFFFFF" width="48.5" height="26.9"/>
<rect x="66.7" y="359.4" fill="#1C2324" width="53" height="31.6"/>
<rect x="64.7" y="357.4" fill="#253034" width="53" height="31.6"/>
<rect x="67.9" y="360.7" fill="#1C2326" width="48.5" height="26.9"/>
<rect x="66.9" y="359.7" fill="#FFFFFF" width="48.5" height="26.9"/>
<rect x="162.2" y="359.4" fill="#1C2324" width="53" height="31.6"/>
<rect x="160.2" y="357.4" fill="#253034" width="53" height="31.6"/>
<rect x="163.4" y="360.7" fill="#1C2326" width="48.5" height="26.9"/>
<rect x="162.4" y="359.7" fill="#FFFFFF" width="48.5" height="26.9"/>
<g opacity="0.85">
	<circle fill="none" stroke="#CFF4FF" stroke-miterlimit="10" cx="515.5" cy="246.4" r="187.8"/>
</g>
<text transform="matrix(1 0 0 1 316.8818 98.7207)" fill="#253034" font-family="'OCRAExtended'" font-size="60">H</text>
<radialGradient id="SVGID_1_" cx="309.2577" cy="815.8679" r="80.7536" gradientTransform="matrix(0.9999 1.017301e-002 1.166259e-002 -1.1464 597.64 1045.7839)" gradientUnits="userSpaceOnUse">
	<stop  offset="0" style="stop-color:#D8FF3F"/>
	<stop  offset="0.122" style="stop-color:#CAEF40"/>
	<stop  offset="0.359" style="stop-color:#A6C742"/>
	<stop  offset="0.6838" style="stop-color:#6D8645"/>
	<stop  offset="1" style="stop-color:#304048"/>
</radialGradient>
<path fill="url(#SVGID_1_)" d="M1015.9,117.8c-0.2,22.2-6,42.8-15.7,60.2l-54.6-48.9l-57-0.6l-57,48.4c-9.6-17.7-15-38.8-14.8-61.2
	c0.2-23.8,6.8-45.9,17.9-64.1l50.4,45.1l57,0.6l55.3-47C1009.3,69.4,1016.2,92.7,1015.9,117.8z"/>
<linearGradient id="SVGID_2_" gradientUnits="userSpaceOnUse" x1="303.8813" y1="664.7889" x2="303.8813" y2="618.3536" gradientTransform="matrix(1.5708 0 0 -1.5708 436.3694 1248.473)">
	<stop  offset="0" style="stop-color:#D8FF3F"/>
	<stop  offset="0.3262" style="stop-color:#839E44"/>
	<stop  offset="0.5527" style="stop-color:#4E6247"/>
	<stop  offset="0.6601" style="stop-color:#394A48"/>
	<stop  offset="0.7192" style="stop-color:#374848"/>
	<stop  offset="0.8424" style="stop-color:#304048"/>
</linearGradient>
<path fill="url(#SVGID_2_)" d="M989.2,260.8c-22.6,11.2-50.3,17.4-80,16.2c-26.2-1-50.5-7.4-71-17.7l58.5-53.2v-2h38.1L989.2,260.8z
	"/>
<rect x="882.8" y="95.1" fill="#1C2324" width="67.2" height="40.1"/>
<rect x="880.3" y="92.5" fill="#253034" width="67.2" height="40.1"/>
<rect x="883.1" y="95.5" fill="#FFFFFF" width="61.5" height="34.1"/>
<rect x="882.8" y="179.8" fill="#1C2324" width="67.2" height="40.1"/>
<rect x="880.3" y="177.3" fill="#253034" width="67.2" height="40.1"/>
<rect x="883.1" y="180.3" fill="#FFFFFF" width="61.5" height="34.1"/>
<rect x="882.8" y="264.4" fill="#1C2324" width="67.2" height="40.1"/>
<path fill="#232D31" d="M898.9,307.3c-0.4,1.8-1.5,3.5-2,3.3l-7.6-1.9c-0.5-0.1-0.5-2-0.1-3.9v-0.2c0.4-1.8,1.2-2.9,1.7-2.8l7.6,1.9
	c0.5,0.1,0.8,1.5,0.4,3.3L898.9,307.3L898.9,307.3z"/>
<path fill="#232D31" d="M946.1,320c-0.8,3.1-3.8,5.1-6.6,4.3l-41.9-10.7c-2.8-0.7-4.5-3.9-3.7-7l0.1-0.3c0.8-3.1,3.8-5.1,6.6-4.3
	l41.9,10.7c2.8,0.7,4.5,3.9,3.7,7L946.1,320z"/>
<path fill="#232D31" d="M892.2,306.8c0.6,1.6,0.4,3.2-0.5,3.6l-13.3,5.2c-0.9,0.4-2.2-0.7-2.8-2.3l-0.1-0.2
	c-0.6-1.6-0.2-2.8,0.7-3.1l13.3-5.2c0.9-0.4,2,0.2,2.6,1.8L892.2,306.8z"/>
<path fill="#232D31" d="M878.4,313.1c-0.9,1-2,1.6-2.7,1l-9.3-8.3c-0.6-0.6-0.4-1.9,0.6-2.9l0.1-0.1c0.9-1,2.1-1.3,2.7-0.7l9.3,8.3
	c0.6,0.6,0.4,1.5-0.6,2.6L878.4,313.1z"/>
<path fill="#232D31" d="M884.8,291.5c0.3,1.4,0.1,2.6-0.8,2.8l-12.7,2.9c-0.9,0.2-1.8-0.8-2.1-2.1V295c-0.3-1.4,0.2-2.4,1.1-2.6
	l12.7-2.9C883.9,289.3,884.5,290.1,884.8,291.5L884.8,291.5z"/>
<path fill="#232D31" d="M887.8,292c1.5-0.8,3-1,3.4-0.4l4.6,8.6c0.3,0.6-0.7,1.7-2.2,2.6l-0.2,0.1c-1.5,0.8-2.6,0.8-2.9,0.2
	l-4.6-8.6c-0.3-0.6,0.2-1.5,1.8-2.3L887.8,292z"/>
<path fill="#FF704E" d="M895.9,304.3c-0.4,1.8-1.5,3.5-2,3.3l-7.6-1.9c-0.5-0.1-0.5-2-0.1-3.9v-0.2c0.4-1.8,1.2-2.9,1.7-2.8l7.6,1.9
	c0.5,0.1,0.8,1.5,0.4,3.3L895.9,304.3z"/>
<path fill="#627F8E" d="M943.1,317c-0.8,3.1-3.8,5.1-6.6,4.3l-41.9-10.7c-2.8-0.7-4.5-3.9-3.7-7l0.1-0.3c0.8-3.1,3.8-5.1,6.6-4.3
	l41.9,10.7c2.8,0.7,4.5,3.9,3.7,7L943.1,317z"/>
<path fill="#627E8F" d="M889.2,303.8c0.6,1.6,0.4,3.2-0.5,3.6l-13.3,5.2c-0.9,0.4-2.2-0.7-2.8-2.3l-0.1-0.2
	c-0.6-1.6-0.2-2.8,0.7-3.1l13.3-5.2c0.9-0.4,2,0.2,2.6,1.8L889.2,303.8z"/>
<path fill="#79FFFF" d="M875.4,310.1c-0.9,1-2,1.6-2.7,1l-9.3-8.3c-0.6-0.6-0.4-1.9,0.6-2.9l0.1-0.1c0.9-1,2.1-1.3,2.7-0.7l9.3,8.3
	c0.6,0.6,0.4,1.5-0.6,2.6L875.4,310.1z"/>
<path fill="#79FFFF" d="M881.8,288.5c0.3,1.4,0.1,2.6-0.8,2.8l-12.7,2.9c-0.9,0.2-1.8-0.8-2.1-2.1V292c-0.3-1.4,0.2-2.4,1.1-2.6
	l12.7-2.9C880.9,286.3,881.5,287.1,881.8,288.5L881.8,288.5z"/>
<path fill="#617F8E" d="M884.8,289c1.5-0.8,3-1,3.4-0.4l4.6,8.6c0.3,0.6-0.7,1.7-2.2,2.6l-0.2,0.1c-1.5,0.8-2.6,0.8-2.9,0.2
	l-4.6-8.6c-0.3-0.6,0.2-1.5,1.8-2.3L884.8,289z"/>
<rect x="880.3" y="261.9" fill="#253034" width="67.2" height="40.1"/>
<rect x="883.2" y="264.9" fill="#FFFFFF" width="61.5" height="34.1"/>
<path fill="#1C2324" d="M871.5,395.1l-3.6,3l11.4,1l0.5-11l-3,2.5c0,0-1.9-2.3-2.6-3.4c-0.3-0.5-1.4-2-2.2-3.5
	c-0.9-1.7-1.5-3.4-1.5-3.4s-0.5-1.8-0.6-3c0-1.3-0.2-1.8-0.1-2.6s0-1.7,0.2-2.1c0.1-0.5,0.1-0.5,0.5-0.7s0.6-0.2,1.2-0.2
	c0.6,0,1.2,0,1.7,0.1s1.3,0.4,2,0.7c0.8,0.3,1.6,0.8,1.6,0.8l1.2,0.7l1.6,0.8c0,0,1.3,0.8,1.6,1s1.5,1,1.8,1.3s5.4,4.9,5.4,4.9
	l3.5,5.2l1.5,2.3l1.2,2.6l0.7,1.5l0.5,1.6l0.5,2.1l0.3,1.6l0.1,1.3c0,0,0.1,0.4-0.1,1.3s-0.2,0.9-0.3,1.1s-0.7,0.3-0.7,0.3
	s-0.4,0.1-1.2,0.1s-1-0.2-1-0.2l-1.1-0.3l-1.6-0.5l-1.3-0.5l-2.2-1.2l-1.3-0.8l-1.2-0.9l-4.7,4.1l2.9,2l2.4,1.1l2,0.8l1.8,0.3
	c0,0,1.5,0.2,1.7,0.2s1.3,0,1.5,0c0.1,0,1.4-0.2,1.7-0.3c0.3-0.1,1.1-0.5,1.2-0.6c0.2-0.1,1-0.9,1-0.9l1.3-1.2l1.6-1.7l1-1.3
	l0.9-1.6l0.6-2.1l0.1-1.6l-0.1-1.9l-0.4-1.8l-0.6-2.1l-0.7-1.7l-0.7-1.3l-1.1-1.7l-8.6-11.1l-5.4-3.6l-2.6-1.3c0,0-0.9-0.5-1.5-0.7
	c-0.5-0.2-0.9-0.3-1.3-0.5s-0.6-0.2-1.1-0.4s-1.7-0.2-2.1-0.2c-0.4,0-1.3,0-1.8,0.1s-1.1,0.4-1.6,0.7c-0.5,0.3-0.7,0.3-1.3,0.7
	c-0.6,0.4-0.9,0.5-1.6,1.2c-0.7,0.6-0.8,0.7-1.3,1.2s-1.2,1.3-1.2,1.3s-0.7,0.9-1,1.5s-0.6,1-0.8,1.8s-0.3,1-0.3,1.8
	c0,0.9,0,1.8,0,1.8l0.1,1.7l0.3,1.3l0.6,2.2l0.8,2l0.7,1.6l1,2l1.2,1.9l1.1,1.5L871.5,395.1z"/>
<rect x="882.7" y="349.4" fill="#1C2324" width="67.2" height="40.1"/>
<path fill="#79FFFF" d="M870.5,394.1l-3.6,3l11.4,1l0.5-11l-3,2.5c0,0-1.9-2.3-2.6-3.4c-0.3-0.5-1.4-2-2.2-3.5
	c-0.9-1.7-1.5-3.4-1.5-3.4s-0.5-1.8-0.6-3c0-1.3-0.2-1.8-0.1-2.6s0-1.7,0.2-2.1c0.1-0.5,0.1-0.5,0.5-0.7s0.6-0.2,1.2-0.2
	c0.6,0,1.2,0,1.7,0.1s1.3,0.4,2,0.7c0.8,0.3,1.6,0.8,1.6,0.8l1.2,0.7l1.6,0.8c0,0,1.3,0.8,1.6,1s1.5,1,1.8,1.3s5.4,4.9,5.4,4.9
	l3.5,5.2l1.5,2.3l1.2,2.6l0.7,1.5l0.5,1.6l0.5,2.1l0.3,1.6l0.1,1.3c0,0,0.1,0.4-0.1,1.3s-0.2,0.9-0.3,1.1s-0.7,0.3-0.7,0.3
	s-0.4,0.1-1.2,0.1s-1-0.2-1-0.2l-1.1-0.3l-1.6-0.5l-1.3-0.5l-2.2-1.2l-1.3-0.8l-1.2-0.9l-4.7,4.1l2.9,2l2.4,1.1l2,0.8l1.8,0.3
	c0,0,1.5,0.2,1.7,0.2s1.3,0,1.5,0c0.1,0,1.4-0.2,1.7-0.3c0.3-0.1,1.1-0.5,1.2-0.6c0.2-0.1,1-0.9,1-0.9l1.3-1.2l1.6-1.7l1-1.3
	l0.9-1.6l0.6-2.1l0.1-1.6l-0.1-1.9l-0.4-1.8l-0.6-2.1l-0.7-1.7l-0.7-1.3l-1.1-1.7l-8.6-11.1l-5.4-3.6l-2.6-1.3c0,0-0.9-0.5-1.5-0.7
	c-0.5-0.2-0.9-0.3-1.3-0.5s-0.6-0.2-1.1-0.4s-1.7-0.2-2.1-0.2c-0.4,0-1.3,0-1.8,0.1s-1.1,0.4-1.6,0.7c-0.5,0.3-0.7,0.3-1.3,0.7
	c-0.6,0.4-0.9,0.5-1.6,1.2c-0.7,0.6-0.8,0.7-1.3,1.2s-1.2,1.3-1.2,1.3s-0.7,0.9-1,1.5s-0.6,1-0.8,1.8s-0.3,1-0.3,1.8
	c0,0.9,0,1.8,0,1.8l0.1,1.7l0.3,1.3l0.6,2.2l0.8,2l0.7,1.6l1,2l1.2,1.9l1.1,1.5L870.5,394.1z"/>
<rect x="880.2" y="346.8" fill="#253034" width="67.2" height="40.1"/>
<rect x="883" y="349.8" fill="#FFFFFF" width="61.5" height="34.1"/>
<rect x="882.7" y="434.2" fill="#1C2324" width="67.2" height="40.1"/>
<path fill="#1C2324" d="M907.4,472.3c0,1-0.2,1.9-1,1.9h-37.3c-0.8,0-1.7-0.9-1.7-1.9v-0.2c0-1,0.9-1.8,1.7-1.8h37.3
	c0.8,0,1,0.8,1,1.8V472.3z"/>
<path fill="#1C2324" d="M883.7,471.8c0.9-0.3,1.8-0.3,1.9,0.2c0,0,0.1,3.9,0.3,5c0.1,0.5,0.3,1.7,0.6,2.8c0.3,1.4,0.8,2.8,0.9,3.3
	c0.2,0.6,0.8,2.4,1.5,3.9c0.4,0.9,0.8,1.5,1,2.1c0.6,1.3,3.1,5.5,3.1,5.5c0.2,0.5-0.5,1.2-1.4,1.4l-0.2,0.1
	c-0.9,0.3-1.8,0.1-1.9-0.3c0,0-1.2-1.1-2.4-3s-2.6-4.6-3.4-7.2c-0.9-2.6-1.2-5.2-1.4-6.6s-0.2-5.8-0.2-5.8c-0.2-0.5,0.5-1,1.4-1.3
	L883.7,471.8z"/>
<path fill="#1C2324" d="M907.4,479.2c0.7,0.7,1.2,1.6,0.7,2.1l-21.2,21.9c-0.5,0.5-1.5,0.2-2.2-0.5l-0.2-0.2c-0.7-0.7-1-1.7-0.5-2.1
	l21.2-21.9c0.5-0.5,1.3-0.1,2,0.6L907.4,479.2z"/>
<path fill="#79FFFF" d="M905.4,471.3c0,1-0.2,1.9-1,1.9h-37.3c-0.8,0-1.7-0.9-1.7-1.9v-0.2c0-1,0.9-1.8,1.7-1.8h37.3
	c0.8,0,1,0.8,1,1.8V471.3z"/>
<path fill="#79FFFF" d="M881.7,470.8c0.9-0.3,1.8-0.3,1.9,0.2c0,0,0.1,3.9,0.3,5c0.1,0.5,0.3,1.7,0.6,2.8c0.3,1.4,0.8,2.8,0.9,3.3
	c0.2,0.6,0.8,2.4,1.5,3.9c0.4,0.9,0.8,1.5,1,2.1c0.6,1.3,3.1,5.5,3.1,5.5c0.2,0.5-0.5,1.2-1.4,1.4l-0.2,0.1
	c-0.9,0.3-1.8,0.1-1.9-0.3c0,0-1.2-1.1-2.4-3s-2.6-4.6-3.4-7.2c-0.9-2.6-1.2-5.2-1.4-6.6s-0.2-5.8-0.2-5.8c-0.2-0.5,0.5-1,1.4-1.3
	L881.7,470.8z"/>
<path fill="#79FFFF" d="M905.4,478.2c0.7,0.7,1.2,1.6,0.7,2.1l-21.2,21.9c-0.5,0.5-1.5,0.2-2.2-0.5l-0.2-0.2c-0.7-0.7-1-1.7-0.5-2.1
	l21.2-21.9c0.5-0.5,1.3-0.1,2,0.6L905.4,478.2z"/>
<rect x="880.2" y="431.7" fill="#253034" width="67.2" height="40.1"/>
<rect x="883.1" y="434.7" fill="#FFFFFF" width="61.5" height="34.1"/>
<rect x="16.7" y="551.2" fill="#253033" width="1000.5" height="157.7"/>
<rect x="11.7" y="546.2" fill="#FFFFFF" width="242.2" height="157.7"/>
<rect x="256.9" y="546.2" fill="#FFFFFF" width="755.3" height="157.7"/>
<path fill="#1C2324" d="M127,148.2c-1,1.4-2.8,1.9-4,1.1l-16.7-11.7c-1.2-0.9-1.4-2.7-0.4-4.2l5.9-8.4c1-1.4,2.8-1.9,4-1.1
	l16.7,11.7c1.2,0.9,1.4,2.7,0.4,4.2L127,148.2z"/>
<path fill="#1C2324" d="M103.3,157c-0.4,0.6-1.2,0.7-1.8,0.3l-0.3-0.2c-0.6-0.4-0.7-1.2-0.3-1.8l8.2-11.8c0.4-0.6,1.2-0.7,1.8-0.3
	l0.3,0.2c0.6,0.4,0.7,1.2,0.3,1.8L103.3,157z"/>
<path fill="#1C2324" d="M108.2,160.5c-0.4,0.6-1.2,0.7-1.8,0.3l-0.3-0.2c-0.6-0.4-0.7-1.2-0.3-1.8L114,147c0.4-0.6,1.2-0.7,1.8-0.3
	l0.3,0.2c0.6,0.4,0.7,1.2,0.3,1.8L108.2,160.5z"/>
<path fill="#1C2324" d="M103.6,146c-0.5,0.7-1.4,0.8-2.1,0.4l0,0c-0.7-0.5-0.8-1.4-0.4-2.1l2.9-4.1c0.5-0.7,1.4-0.8,2.1-0.4l0,0
	c0.7,0.5,0.8,1.4,0.4,2.1L103.6,146z"/>
<path fill="#1C2324" d="M118.3,156.4c-0.5,0.7-1.4,0.8-2.1,0.4l0,0c-0.7-0.5-0.8-1.4-0.4-2.1l2.9-4.1c0.5-0.7,1.4-0.8,2.1-0.4l0,0
	c0.7,0.5,0.8,1.4,0.4,2.1L118.3,156.4z"/>
<path fill="#79FFFF" d="M125,146.2c-1,1.4-2.8,1.9-4,1.1l-16.7-11.7c-1.2-0.9-1.4-2.7-0.4-4.2l5.9-8.4c1-1.4,2.8-1.9,4-1.1
	l16.7,11.7c1.2,0.9,1.4,2.7,0.4,4.2L125,146.2z"/>
<path fill="#79FFFF" d="M101.3,155c-0.4,0.6-1.2,0.7-1.8,0.3l-0.3-0.2c-0.6-0.4-0.7-1.2-0.3-1.8l8.2-11.8c0.4-0.6,1.2-0.7,1.8-0.3
	l0.3,0.2c0.6,0.4,0.7,1.2,0.3,1.8L101.3,155z"/>
<path fill="#79FFFF" d="M106.2,158.5c-0.4,0.6-1.2,0.7-1.8,0.3l-0.3-0.2c-0.6-0.4-0.7-1.2-0.3-1.8L112,145c0.4-0.6,1.2-0.7,1.8-0.3
	l0.3,0.2c0.6,0.4,0.7,1.2,0.3,1.8L106.2,158.5z"/>
<path fill="#79FFFF" d="M101.6,144c-0.5,0.7-1.4,0.8-2.1,0.4l0,0c-0.7-0.5-0.8-1.4-0.4-2.1l2.9-4.1c0.5-0.7,1.4-0.8,2.1-0.4l0,0
	c0.7,0.5,0.8,1.4,0.4,2.1L101.6,144z"/>
<path fill="#79FFFF" d="M116.3,154.4c-0.5,0.7-1.4,0.8-2.1,0.4l0,0c-0.7-0.5-0.8-1.4-0.4-2.1l2.9-4.1c0.5-0.7,1.4-0.8,2.1-0.4l0,0
	c0.7,0.5,0.8,1.4,0.4,2.1L116.3,154.4z"/>
<path fill="#1C2324" d="M180,133.4c1,1.4,0.8,3.3-0.4,4.2l-16.7,11.7c-1.2,0.9-3,0.4-4-1.1l-5.9-8.4c-1-1.4-0.8-3.3,0.4-4.2
	l16.7-11.7c1.2-0.9,3-0.4,4,1.1L180,133.4z"/>
<path fill="#1C2324" d="M180.2,158.8c0.4,0.6,0.3,1.4-0.3,1.8l-0.3,0.2c-0.6,0.4-1.4,0.3-1.8-0.3l-8.3-11.7
	c-0.4-0.6-0.3-1.4,0.3-1.8l0.3-0.2c0.6-0.4,1.4-0.3,1.8,0.3L180.2,158.8z"/>
<path fill="#1C2324" d="M185.1,155.3c0.4,0.6,0.3,1.4-0.3,1.8l-0.3,0.2c-0.6,0.4-1.4,0.3-1.8-0.3l-8.3-11.7
	c-0.4-0.6-0.3-1.4,0.3-1.8l0.3-0.2c0.6-0.4,1.4-0.3,1.8,0.3L185.1,155.3z"/>
<path fill="#1C2324" d="M170,154.7c0.5,0.7,0.3,1.6-0.4,2.1l0,0c-0.7,0.5-1.6,0.3-2.1-0.4l-2.9-4.1c-0.5-0.7-0.3-1.6,0.4-2.1l0,0
	c0.7-0.5,1.6-0.3,2.1,0.4L170,154.7z"/>
<path fill="#1C2324" d="M184.7,144.4c0.5,0.7,0.3,1.6-0.4,2.1l0,0c-0.7,0.5-1.6,0.3-2.1-0.4l-2.9-4.1c-0.5-0.7-0.3-1.6,0.4-2.1l0,0
	c0.7-0.5,1.6-0.3,2.1,0.4L184.7,144.4z"/>
<path fill="#79FFFF" d="M178,131.4c1,1.4,0.8,3.3-0.4,4.2l-16.7,11.7c-1.2,0.9-3,0.4-4-1.1l-5.9-8.4c-1-1.4-0.8-3.3,0.4-4.2
	l16.7-11.7c1.2-0.9,3-0.4,4,1.1L178,131.4z"/>
<path fill="#79FFFF" d="M178.2,156.8c0.4,0.6,0.3,1.4-0.3,1.8l-0.3,0.2c-0.6,0.4-1.4,0.3-1.8-0.3l-8.3-11.7
	c-0.4-0.6-0.3-1.4,0.3-1.8l0.3-0.2c0.6-0.4,1.4-0.3,1.8,0.3L178.2,156.8z"/>
<path fill="#79FFFF" d="M183.1,153.3c0.4,0.6,0.3,1.4-0.3,1.8l-0.3,0.2c-0.6,0.4-1.4,0.3-1.8-0.3l-8.3-11.7
	c-0.4-0.6-0.3-1.4,0.3-1.8l0.3-0.2c0.6-0.4,1.4-0.3,1.8,0.3L183.1,153.3z"/>
<path fill="#79FFFF" d="M168,152.7c0.5,0.7,0.3,1.6-0.4,2.1l0,0c-0.7,0.5-1.6,0.3-2.1-0.4l-2.9-4.1c-0.5-0.7-0.3-1.6,0.4-2.1l0,0
	c0.7-0.5,1.6-0.3,2.1,0.4L168,152.7z"/>
<path fill="#79FFFF" d="M182.7,142.4c0.5,0.7,0.3,1.6-0.4,2.1l0,0c-0.7,0.5-1.6,0.3-2.1-0.4l-2.9-4.1c-0.5-0.7-0.3-1.6,0.4-2.1l0,0
	c0.7-0.5,1.6-0.3,2.1,0.4L182.7,142.4z"/>
<path fill="#1C2324" d="M179,325.2c-1,1.4-2.8,1.9-4,1.1l-16.7-11.7c-1.2-0.9-1.4-2.7-0.4-4.2l5.9-8.4c1-1.4,2.8-1.9,4-1.1
	l16.7,11.7c1.2,0.9,1.4,2.7,0.4,4.2L179,325.2z"/>
<path fill="#1C2324" d="M155.3,334c-0.4,0.6-1.2,0.7-1.8,0.3l-0.3-0.2c-0.6-0.4-0.7-1.2-0.3-1.8l8.2-11.8c0.4-0.6,1.2-0.7,1.8-0.3
	l0.3,0.2c0.6,0.4,0.7,1.2,0.3,1.8L155.3,334z"/>
<path fill="#1C2324" d="M160.2,337.5c-0.4,0.6-1.2,0.7-1.8,0.3l-0.3-0.2c-0.6-0.4-0.7-1.2-0.3-1.8L166,324c0.4-0.6,1.2-0.7,1.8-0.3
	l0.3,0.2c0.6,0.4,0.7,1.2,0.3,1.8L160.2,337.5z"/>
<path fill="#1C2324" d="M155.6,323c-0.5,0.7-1.4,0.8-2.1,0.4l0,0c-0.7-0.5-0.8-1.4-0.4-2.1l2.9-4.1c0.5-0.7,1.4-0.8,2.1-0.4l0,0
	c0.7,0.5,0.8,1.4,0.4,2.1L155.6,323z"/>
<path fill="#1C2324" d="M170.3,333.4c-0.5,0.7-1.4,0.8-2.1,0.4l0,0c-0.7-0.5-0.8-1.4-0.4-2.1l2.9-4.1c0.5-0.7,1.4-0.8,2.1-0.4l0,0
	c0.7,0.5,0.8,1.4,0.4,2.1L170.3,333.4z"/>
<path fill="#79FFFF" d="M177,323.2c-1,1.4-2.8,1.9-4,1.1l-16.7-11.7c-1.2-0.9-1.4-2.7-0.4-4.2l5.9-8.4c1-1.4,2.8-1.9,4-1.1
	l16.7,11.7c1.2,0.9,1.4,2.7,0.4,4.2L177,323.2z"/>
<path fill="#79FFFF" d="M153.3,332c-0.4,0.6-1.2,0.7-1.8,0.3l-0.3-0.2c-0.6-0.4-0.7-1.2-0.3-1.8l8.2-11.8c0.4-0.6,1.2-0.7,1.8-0.3
	l0.3,0.2c0.6,0.4,0.7,1.2,0.3,1.8L153.3,332z"/>
<path fill="#79FFFF" d="M158.2,335.5c-0.4,0.6-1.2,0.7-1.8,0.3l-0.3-0.2c-0.6-0.4-0.7-1.2-0.3-1.8L164,322c0.4-0.6,1.2-0.7,1.8-0.3
	l0.3,0.2c0.6,0.4,0.7,1.2,0.3,1.8L158.2,335.5z"/>
<path fill="#79FFFF" d="M153.6,321c-0.5,0.7-1.4,0.8-2.1,0.4l0,0c-0.7-0.5-0.8-1.4-0.4-2.1l2.9-4.1c0.5-0.7,1.4-0.8,2.1-0.4l0,0
	c0.7,0.5,0.8,1.4,0.4,2.1L153.6,321z"/>
<path fill="#79FFFF" d="M168.3,331.4c-0.5,0.7-1.4,0.8-2.1,0.4l0,0c-0.7-0.5-0.8-1.4-0.4-2.1l2.9-4.1c0.5-0.7,1.4-0.8,2.1-0.4l0,0
	c0.7,0.5,0.8,1.4,0.4,2.1L168.3,331.4z"/>
<path fill="#1C2324" d="M127,310.4c1,1.4,0.8,3.3-0.4,4.2l-16.7,11.7c-1.2,0.9-3,0.4-4-1.1l-5.9-8.4c-1-1.4-0.8-3.3,0.4-4.2
	l16.7-11.7c1.2-0.9,3-0.4,4,1.1L127,310.4z"/>
<path fill="#1C2324" d="M127.2,335.8c0.4,0.6,0.3,1.4-0.3,1.8l-0.3,0.2c-0.6,0.4-1.4,0.3-1.8-0.3l-8.3-11.7
	c-0.4-0.6-0.3-1.4,0.3-1.8l0.3-0.2c0.6-0.4,1.4-0.3,1.8,0.3L127.2,335.8z"/>
<path fill="#1C2324" d="M132.1,332.3c0.4,0.6,0.3,1.4-0.3,1.8l-0.3,0.2c-0.6,0.4-1.4,0.3-1.8-0.3l-8.3-11.7
	c-0.4-0.6-0.3-1.4,0.3-1.8l0.3-0.2c0.6-0.4,1.4-0.3,1.8,0.3L132.1,332.3z"/>
<circle fill="#1C2324" cx="143" cy="61.5" r="13"/>
<circle fill="#1C2324" cx="143" cy="61.5" r="11.5"/>
<path fill="#1C2324" d="M143.4,55.2l-11.9,6c0.1-6.3,5.2-11.3,11.5-11.3c0.1,0,0.3,0,0.3,0L143.4,55.2L143.4,55.2z"/>
<path fill="#1C2324" d="M154.6,61.2h-5.5l-5.7-11.3C149.5,50.1,154.5,55.2,154.6,61.2z"/>
<path fill="#1C2324" d="M154.6,61.5c0,6.4-5.2,11.5-11.5,11.5c-6.4,0-11.5-5.2-11.5-11.6c0-0.1,0-0.2,0-0.2h5.9l6,11.7v-6.2
	l11.2-5.5C154.6,61.3,154.6,61.4,154.6,61.5z"/>
<path fill="#1C2324" d="M117,331.7c0.5,0.7,0.3,1.6-0.4,2.1l0,0c-0.7,0.5-1.6,0.3-2.1-0.4l-2.9-4.1c-0.5-0.7-0.3-1.6,0.4-2.1l0,0
	c0.7-0.5,1.6-0.3,2.1,0.4L117,331.7z"/>
<path fill="#1C2324" d="M131.7,321.4c0.5,0.7,0.3,1.6-0.4,2.1l0,0c-0.7,0.5-1.6,0.3-2.1-0.4l-2.9-4.1c-0.5-0.7-0.3-1.6,0.4-2.1l0,0
	c0.7-0.5,1.6-0.3,2.1,0.4L131.7,321.4z"/>
<path fill="#79FFFF" d="M125,308.4c1,1.4,0.8,3.3-0.4,4.2l-16.7,11.7c-1.2,0.9-3,0.4-4-1.1l-5.9-8.4c-1-1.4-0.8-3.3,0.4-4.2
	l16.7-11.7c1.2-0.9,3-0.4,4,1.1L125,308.4z"/>
<path fill="#79FFFF" d="M125.2,333.8c0.4,0.6,0.3,1.4-0.3,1.8l-0.3,0.2c-0.6,0.4-1.4,0.3-1.8-0.3l-8.3-11.7
	c-0.4-0.6-0.3-1.4,0.3-1.8l0.3-0.2c0.6-0.4,1.4-0.3,1.8,0.3L125.2,333.8z"/>
<path fill="#79FFFF" d="M130.1,330.3c0.4,0.6,0.3,1.4-0.3,1.8l-0.3,0.2c-0.6,0.4-1.4,0.3-1.8-0.3l-8.3-11.7
	c-0.4-0.6-0.3-1.4,0.3-1.8l0.3-0.2c0.6-0.4,1.4-0.3,1.8,0.3L130.1,330.3z"/>
<path fill="#79FFFF" d="M115,329.7c0.5,0.7,0.3,1.6-0.4,2.1l0,0c-0.7,0.5-1.6,0.3-2.1-0.4l-2.9-4.1c-0.5-0.7-0.3-1.6,0.4-2.1l0,0
	c0.7-0.5,1.6-0.3,2.1,0.4L115,329.7z"/>
<path fill="#79FFFF" d="M129.7,319.4c0.5,0.7,0.3,1.6-0.4,2.1l0,0c-0.7,0.5-1.6,0.3-2.1-0.4l-2.9-4.1c-0.5-0.7-0.3-1.6,0.4-2.1l0,0
	c0.7-0.5,1.6-0.3,2.1,0.4L129.7,319.4z"/>
<circle fill="#79FFFF" cx="141" cy="59.5" r="13"/>
<circle fill="#314049" cx="141" cy="59.5" r="11.5"/>
<path fill="#399EA9" d="M141.4,53.2l-11.9,6c0.1-6.3,5.2-11.3,11.5-11.3c0.1,0,0.3,0,0.3,0L141.4,53.2L141.4,53.2z"/>
<path fill="#399EA9" d="M152.6,59.2h-5.5l-5.7-11.3C147.5,48.1,152.5,53.2,152.6,59.2z"/>
<path fill="#399EA9" d="M152.6,59.5c0,6.4-5.2,11.5-11.5,11.5c-6.4,0-11.5-5.2-11.5-11.6c0-0.1,0-0.2,0-0.2h5.9l6,11.7v-6.2
	l11.2-5.5C152.6,59.3,152.6,59.4,152.6,59.5z"/>
<circle fill="#253034" cx="48" cy="230.5" r="13"/>
<circle fill="#253034" cx="48" cy="230.5" r="11.5"/>
<path fill="#253034" d="M48.4,224.2l-11.9,6c0.1-6.3,5.2-11.3,11.5-11.3c0.1,0,0.3,0,0.3,0L48.4,224.2L48.4,224.2z"/>
<path fill="#253034" d="M59.6,230.2h-5.5l-5.7-11.3C54.5,219.1,59.5,224.2,59.6,230.2z"/>
<path fill="#253034" d="M59.6,230.5c0,6.4-5.2,11.5-11.5,11.5c-6.4,0-11.5-5.2-11.5-11.6c0-0.1,0-0.2,0-0.2h5.8l6,11.7v-6.2
	l11.2-5.5C59.6,230.3,59.6,230.4,59.6,230.5z"/>
<circle fill="#79FFFF" cx="46" cy="228.5" r="13"/>
<circle fill="#314049" cx="46" cy="228.5" r="11.5"/>
<path fill="#399EA9" d="M46.4,222.2l-11.9,6c0.1-6.3,5.2-11.3,11.5-11.3c0.1,0,0.3,0,0.3,0L46.4,222.2L46.4,222.2z"/>
<path fill="#399EA9" d="M57.6,228.2h-5.5l-5.7-11.3C52.5,217.1,57.5,222.2,57.6,228.2z"/>
<path fill="#399EA9" d="M57.6,228.5c0,6.4-5.2,11.5-11.5,11.5c-6.4,0-11.5-5.2-11.5-11.6c0-0.1,0-0.2,0-0.2h5.8l6,11.7v-6.2
	l11.2-5.5C57.6,228.3,57.6,228.4,57.6,228.5z"/>
<circle fill="#1C2324" cx="143" cy="375.5" r="13"/>
<circle fill="#1C2324" cx="143" cy="375.5" r="11.5"/>
<path fill="#1C2324" d="M143.4,369.2l-11.9,6c0.1-6.3,5.2-11.3,11.5-11.3c0.1,0,0.3,0,0.3,0L143.4,369.2L143.4,369.2z"/>
<path fill="#1C2324" d="M154.6,375.2h-5.5l-5.7-11.3C149.5,364.1,154.5,369.2,154.6,375.2z"/>
<path fill="#1C2324" d="M154.6,375.5c0,6.4-5.2,11.5-11.5,11.5c-6.4,0-11.5-5.2-11.5-11.6c0-0.1,0-0.2,0-0.2h5.9l6,11.7v-6.2
	l11.2-5.5C154.6,375.3,154.6,375.4,154.6,375.5z"/>
<circle fill="#79FFFF" cx="141" cy="373.5" r="13"/>
<circle fill="#314049" cx="141" cy="373.5" r="11.5"/>
<path fill="#399EA9" d="M141.4,367.2l-11.9,6c0.1-6.3,5.2-11.3,11.5-11.3c0.1,0,0.3,0,0.3,0L141.4,367.2L141.4,367.2z"/>
<path fill="#399EA9" d="M152.6,373.2h-5.5l-5.7-11.3C147.5,362.1,152.5,367.2,152.6,373.2z"/>
<path fill="#399EA9" d="M152.6,373.5c0,6.4-5.2,11.5-11.5,11.5c-6.4,0-11.5-5.2-11.5-11.6c0-0.1,0-0.2,0-0.2h5.9l6,11.7v-6.2
	l11.2-5.5C152.6,373.3,152.6,373.4,152.6,373.5z"/>
<circle fill="#1C2324" cx="236" cy="230.5" r="13"/>
<circle fill="#1C2324" cx="236" cy="230.5" r="11.5"/>
<path fill="#1C2324" d="M236.4,224.2l-11.9,6c0.1-6.3,5.2-11.3,11.5-11.3c0.1,0,0.3,0,0.3,0L236.4,224.2L236.4,224.2z"/>
<path fill="#1C2324" d="M247.6,230.2h-5.5l-5.7-11.3C242.5,219.1,247.5,224.2,247.6,230.2z"/>
<path fill="#1C2324" d="M247.6,230.5c0,6.4-5.2,11.5-11.5,11.5c-6.4,0-11.5-5.2-11.5-11.6c0-0.1,0-0.2,0-0.2h5.9l6,11.7v-6.2
	l11.2-5.5C247.6,230.3,247.6,230.4,247.6,230.5z"/>
<circle fill="#79FFFF" cx="234" cy="228.5" r="13"/>
<circle fill="#314049" cx="234" cy="228.5" r="11.5"/>
<path fill="#399EA9" d="M234.4,222.2l-11.9,6c0.1-6.3,5.2-11.3,11.5-11.3c0.1,0,0.3,0,0.3,0L234.4,222.2L234.4,222.2z"/>
<path fill="#399EA9" d="M245.6,228.2h-5.5l-5.7-11.3C240.5,217.1,245.5,222.2,245.6,228.2z"/>
<path fill="#399EA9" d="M245.6,228.5c0,6.4-5.2,11.5-11.5,11.5c-6.4,0-11.5-5.2-11.5-11.6c0-0.1,0-0.2,0-0.2h5.9l6,11.7v-6.2
	l11.2-5.5C245.6,228.3,245.6,228.4,245.6,228.5z"/>
<rect x="301.1" y="469" fill="#79FFFF" width="0.3" height="47.1"/>
<rect x="303.1" y="42.1" fill="#79FFFF" width="0.3" height="409.1"/>
</svg>
