<?xml version="1.0" encoding="utf-8"?>
<!-- Generator: Adobe Illustrator 17.1.0, SVG Export Plug-In . SVG Version: 6.00 Build 0)  -->
<!DOCTYPE svg PUBLIC "-//W3C//DTD SVG 1.1//EN" "http://www.w3.org/Graphics/SVG/1.1/DTD/svg11.dtd">
<svg version="1.1"
	 id="svg2" xmlns:rdf="http://www.w3.org/1999/02/22-rdf-syntax-ns#" xmlns:svg="http://www.w3.org/2000/svg" xmlns:cc="http://creativecommons.org/ns#" xmlns:sodipodi="http://sodipodi.sourceforge.net/DTD/sodipodi-0.dtd" xmlns:inkscape="http://www.inkscape.org/namespaces/inkscape" xmlns:dc="http://purl.org/dc/elements/1.1/" inkscape:version="0.48.4 r9939" sodipodi:docname="pfd_adi_path.svg"
	 xmlns="http://www.w3.org/2000/svg" xmlns:xlink="http://www.w3.org/1999/xlink" x="0px" y="0px" viewBox="0 0 29.9 19"
	 enable-background="new 0 0 29.9 19" xml:space="preserve">
<sodipodi:namedview  showgrid="false" id="base" inkscape:zoom="22.627416" showguides="true" bordercolor="#666666" borderopacity="1.0" inkscape:cx="4.8583467" inkscape:cy="13.637112" pagecolor="#ffffff" inkscape:snap-intersection-paths="true" inkscape:document-units="px" inkscape:snap-object-midpoints="true" inkscape:pageopacity="0.0" inkscape:pageshadow="2" inkscape:snap-smooth-nodes="false" inkscape:current-layer="layer1" inkscape:object-nodes="true" inkscape:window-width="1920" inkscape:snap-center="true" inkscape:object-paths="false" inkscape:window-height="1030" inkscape:window-x="0" inkscape:window-y="0" inkscape:snap-nodes="true" inkscape:window-maximized="1" inkscape:guide-bbox="true" inkscape:snap-midpoints="true">
	</sodipodi:namedview>
<g id="layer1" transform="translate(0,-1033.3622)" inkscape:label="Layer 1" inkscape:groupmode="layer">
	<g>
		<path id="path3327_8_" inkscape:connector-curvature="0" fill="#FF3D00" d="M14.5,1033.4v5c-3.5,0.2-6.2,3-6.5,6.5H3H0v1h3h5
			c0.3,3.6,3.3,6.5,7,6.5s6.7-2.9,7-6.5h5h3v-1h-3h-5c-0.2-3.5-3-6.2-6.5-6.5v-5H14.5z M15,1039.3c3.3,0,6,2.7,6,6c0,3.3-2.7,6-6,6
			s-6-2.7-6-6C9,1042,11.7,1039.3,15,1039.3z"/>
	</g>
</g>
</svg>
